<svg width="661" height="625" viewBox="0 0 661 625" fill="none" xmlns="http://www.w3.org/2000/svg">
<g filter="url(#filter0_f_265_61)">
<mask id="mask0_265_61" style="mask-type:alpha" maskUnits="userSpaceOnUse" x="114" y="48" width="410" height="519">
<rect x="279.552" y="48.0098" width="488.634" height="190.254" transform="rotate(60 279.552 48.0098)" fill="url(#paint0_linear_265_61)"/>
</mask>
<g mask="url(#mask0_265_61)">
<path fill-rule="evenodd" clip-rule="evenodd" d="M401.459 489.541C413.754 493.64 422.837 492.975 429.245 489.275C435.654 485.575 440.772 478.042 443.369 465.345C445.963 452.662 445.759 435.963 442.46 416.136C435.877 376.555 417.32 326.595 388.064 275.922C358.808 225.248 324.819 184.198 293.833 158.706C278.311 145.936 263.952 137.41 251.672 133.315C239.377 129.216 230.294 129.881 223.885 133.581C217.477 137.281 212.359 144.814 209.762 157.512C207.168 170.194 207.372 186.893 210.67 206.72C217.254 246.301 235.81 296.261 265.066 346.935C294.322 397.608 328.312 438.658 359.297 464.15C374.819 476.92 389.179 485.446 401.459 489.541ZM347.105 478.97C313.926 451.673 278.549 408.668 248.447 356.53C218.345 304.391 198.79 252.251 191.74 209.869C188.221 188.715 187.728 169.467 190.961 153.666C194.19 137.879 201.422 124.391 214.29 116.962C227.159 109.532 242.455 110.013 257.742 115.11C273.042 120.211 289.465 130.262 306.026 143.886C339.205 171.183 374.582 214.188 404.684 266.326C434.786 318.465 454.341 370.605 461.391 412.987C464.91 434.141 465.402 453.389 462.17 469.19C458.941 484.977 451.709 498.465 438.841 505.894C425.972 513.324 410.675 512.843 395.389 507.746C380.089 502.645 363.666 492.594 347.105 478.97Z" fill="url(#paint1_radial_265_61)"/>
</g>
<g filter="url(#filter1_f_265_61)">
<mask id="mask1_265_61" style="mask-type:alpha" maskUnits="userSpaceOnUse" x="114" y="48" width="410" height="519">
<rect x="359.104" y="566.306" width="488.634" height="190.254" transform="rotate(-120 359.104 566.306)" fill="url(#paint2_linear_265_61)"/>
</mask>
<g mask="url(#mask1_265_61)">
<path fill-rule="evenodd" clip-rule="evenodd" d="M401.459 489.541C413.754 493.64 422.837 492.975 429.245 489.275C435.654 485.575 440.772 478.042 443.369 465.345C445.963 452.662 445.759 435.963 442.46 416.136C435.877 376.555 417.32 326.595 388.064 275.922C358.808 225.248 324.819 184.198 293.833 158.706C278.311 145.936 263.952 137.41 251.672 133.315C239.377 129.216 230.294 129.881 223.885 133.581C217.477 137.281 212.359 144.814 209.762 157.512C207.168 170.194 207.372 186.893 210.67 206.72C217.254 246.301 235.81 296.261 265.066 346.935C294.322 397.608 328.312 438.658 359.297 464.15C374.819 476.92 389.179 485.446 401.459 489.541ZM347.105 478.97C313.926 451.673 278.549 408.668 248.447 356.53C218.345 304.391 198.79 252.251 191.74 209.869C188.221 188.715 187.728 169.467 190.961 153.666C194.19 137.879 201.422 124.391 214.29 116.962C227.159 109.532 242.455 110.013 257.742 115.11C273.042 120.211 289.465 130.262 306.026 143.886C339.205 171.183 374.582 214.188 404.684 266.326C434.786 318.465 454.341 370.605 461.391 412.987C464.91 434.141 465.402 453.389 462.17 469.19C458.941 484.977 451.709 498.465 438.841 505.894C425.972 513.324 410.675 512.843 395.389 507.746C380.089 502.645 363.666 492.594 347.105 478.97Z" fill="url(#paint3_radial_265_61)"/>
</g>
</g>
<mask id="mask2_265_61" style="mask-type:alpha" maskUnits="userSpaceOnUse" x="89" y="212" width="490" height="191">
<rect x="578.388" y="402.285" width="488.634" height="190.254" transform="rotate(-180 578.388 402.285)" fill="url(#paint4_linear_265_61)"/>
</mask>
<g mask="url(#mask2_265_61)">
<path fill-rule="evenodd" clip-rule="evenodd" d="M135.057 287.094C125.359 295.692 121.394 303.89 121.394 311.291C121.394 318.691 125.359 326.889 135.057 335.487C144.743 344.075 159.307 352.247 178.127 359.305C215.697 373.393 268.242 382.303 326.754 382.303C385.266 382.303 437.812 373.393 475.381 359.305C494.201 352.247 508.765 344.075 518.452 335.487C528.149 326.889 532.114 318.691 532.114 311.291C532.114 303.89 528.149 295.692 518.452 287.094C508.765 278.506 494.201 270.334 475.381 263.276C437.812 249.188 385.266 240.278 326.754 240.278C268.242 240.278 215.697 249.188 178.127 263.276C159.307 270.334 144.743 278.506 135.057 287.094ZM171.389 245.308C211.618 230.222 266.55 221.087 326.754 221.087C386.958 221.087 441.89 230.222 482.12 245.308C502.199 252.837 519.114 262.035 531.183 272.734C543.24 283.424 551.305 296.431 551.305 311.291C551.305 326.15 543.24 339.157 531.183 349.847C519.114 360.546 502.199 369.744 482.12 377.273C441.89 392.359 386.958 401.494 326.754 401.494C266.55 401.494 211.618 392.359 171.389 377.273C151.31 369.744 134.394 360.546 122.326 349.847C110.269 339.157 102.204 326.15 102.204 311.291C102.204 296.431 110.269 283.424 122.326 272.734C134.394 262.035 151.31 252.837 171.389 245.308Z" fill="url(#paint5_radial_265_61)"/>
</g>
<g filter="url(#filter2_f_265_61)">
<mask id="mask3_265_61" style="mask-type:alpha" maskUnits="userSpaceOnUse" x="89" y="212" width="490" height="191">
<rect x="89.754" y="212.031" width="488.634" height="190.254" fill="url(#paint6_linear_265_61)"/>
</mask>
<g mask="url(#mask3_265_61)">
<path fill-rule="evenodd" clip-rule="evenodd" d="M135.057 287.094C125.359 295.692 121.394 303.89 121.394 311.291C121.394 318.691 125.359 326.889 135.057 335.487C144.743 344.075 159.307 352.247 178.127 359.305C215.696 373.393 268.242 382.303 326.754 382.303C385.266 382.303 437.812 373.393 475.381 359.305C494.201 352.247 508.765 344.075 518.451 335.487C528.149 326.889 532.114 318.691 532.114 311.291C532.114 303.89 528.149 295.692 518.451 287.094C508.765 278.506 494.201 270.334 475.381 263.276C437.812 249.188 385.266 240.278 326.754 240.278C268.242 240.278 215.696 249.188 178.127 263.276C159.307 270.334 144.743 278.506 135.057 287.094ZM171.389 245.308C211.618 230.222 266.55 221.087 326.754 221.087C386.958 221.087 441.89 230.222 482.119 245.308C502.199 252.837 519.114 262.035 531.183 272.734C543.24 283.424 551.304 296.431 551.304 311.291C551.304 326.15 543.24 339.157 531.183 349.847C519.114 360.546 502.199 369.744 482.119 377.273C441.89 392.359 386.958 401.494 326.754 401.494C266.55 401.494 211.618 392.359 171.389 377.273C151.31 369.744 134.394 360.546 122.326 349.847C110.269 339.157 102.204 326.15 102.204 311.291C102.204 296.431 110.269 283.424 122.326 272.734C134.394 262.035 151.31 252.837 171.389 245.308Z" fill="url(#paint7_radial_265_61)"/>
</g>
</g>
<mask id="mask4_265_61" style="mask-type:alpha" maskUnits="userSpaceOnUse" x="122" y="59" width="410" height="519">
<rect x="122.159" y="482.236" width="488.634" height="190.254" transform="rotate(-60 122.159 482.236)" fill="url(#paint8_linear_265_61)"/>
</mask>
<g mask="url(#mask4_265_61)">
<path fill-rule="evenodd" clip-rule="evenodd" d="M443.582 155.896C440.985 143.198 435.867 135.665 429.459 131.965C423.05 128.265 413.967 127.6 401.672 131.699C389.392 135.794 375.033 144.32 359.511 157.09C328.525 182.582 294.536 223.633 265.28 274.306C236.024 324.979 217.467 374.939 210.884 414.52C207.585 434.347 207.381 451.046 209.975 463.729C212.572 476.426 217.69 483.959 224.099 487.659C230.507 491.359 239.59 492.025 251.885 487.925C264.165 483.831 278.525 475.304 294.047 462.534C325.032 437.042 359.022 395.992 388.278 345.319C417.534 294.646 436.09 244.685 442.674 205.104C445.972 185.277 446.176 168.578 443.582 155.896ZM461.604 208.253C454.554 250.636 434.999 302.775 404.897 354.914C374.795 407.052 339.418 450.057 306.239 477.354C289.678 490.978 273.255 501.029 257.955 506.13C242.669 511.227 227.372 511.708 214.503 504.278C201.635 496.849 194.403 483.361 191.174 467.574C187.942 451.773 188.434 432.525 191.953 411.371C199.003 368.989 218.558 316.849 248.66 264.71C278.762 212.572 314.139 169.567 347.319 142.27C363.879 128.646 380.302 118.595 395.602 113.494C410.889 108.397 426.185 107.916 439.054 115.346C451.922 122.775 459.154 136.263 462.383 152.05C465.616 167.851 465.123 187.099 461.604 208.253Z" fill="url(#paint9_radial_265_61)"/>
</g>
<g filter="url(#filter3_f_265_61)">
<mask id="mask5_265_61" style="mask-type:alpha" maskUnits="userSpaceOnUse" x="122" y="59" width="410" height="519">
<rect x="531.24" y="154.194" width="488.634" height="190.254" transform="rotate(120 531.24 154.194)" fill="url(#paint10_linear_265_61)"/>
</mask>
<g mask="url(#mask5_265_61)">
<path fill-rule="evenodd" clip-rule="evenodd" d="M443.582 155.896C440.985 143.198 435.868 135.665 429.459 131.965C423.05 128.265 413.967 127.6 401.673 131.699C389.392 135.794 375.033 144.32 359.511 157.09C328.525 182.582 294.536 223.633 265.28 274.306C236.024 324.979 217.467 374.939 210.884 414.52C207.586 434.347 207.381 451.046 209.975 463.729C212.573 476.426 217.69 483.959 224.099 487.659C230.508 491.359 239.59 492.025 251.885 487.925C264.166 483.831 278.525 475.304 294.047 462.534C325.033 437.042 359.022 395.992 388.278 345.319C417.534 294.646 436.09 244.685 442.674 205.104C445.972 185.277 446.177 168.578 443.582 155.896ZM461.604 208.253C454.555 250.636 435 302.775 404.897 354.914C374.795 407.052 339.418 450.057 306.239 477.354C289.679 490.978 273.256 501.029 257.955 506.13C242.669 511.227 227.372 511.708 214.504 504.278C201.635 496.849 194.403 483.361 191.174 467.574C187.942 451.773 188.435 432.525 191.953 411.371C199.003 368.989 218.558 316.849 248.66 264.71C278.763 212.572 314.139 169.567 347.319 142.27C363.879 128.646 380.302 118.595 395.603 113.494C410.889 108.397 426.186 107.916 439.054 115.346C451.923 122.775 459.155 136.263 462.384 152.05C465.616 167.851 465.123 187.099 461.604 208.253Z" fill="url(#paint11_radial_265_61)"/>
</g>
</g>
</g>
<g filter="url(#filter4_f_265_61)">
<circle cx="332.544" cy="310.439" r="34.089" fill="url(#paint12_radial_265_61)"/>
</g>
<defs>
<filter id="filter0_f_265_61" x="92.6327" y="100.137" width="468.243" height="420.966" filterUnits="userSpaceOnUse" color-interpolation-filters="sRGB">
<feFlood flood-opacity="0" result="BackgroundImageFix"/>
<feBlend mode="normal" in="SourceGraphic" in2="BackgroundImageFix" result="shape"/>
<feGaussianBlur stdDeviation="4.78554" result="effect1_foregroundBlur_265_61"/>
</filter>
<filter id="filter1_f_265_61" x="129.826" y="52.3536" width="393.479" height="518.149" filterUnits="userSpaceOnUse" color-interpolation-filters="sRGB">
<feFlood flood-opacity="0" result="BackgroundImageFix"/>
<feBlend mode="normal" in="SourceGraphic" in2="BackgroundImageFix" result="shape"/>
<feGaussianBlur stdDeviation="29.4853" result="effect1_foregroundBlur_265_61"/>
</filter>
<filter id="filter2_f_265_61" x="43.2332" y="162.117" width="567.042" height="298.348" filterUnits="userSpaceOnUse" color-interpolation-filters="sRGB">
<feFlood flood-opacity="0" result="BackgroundImageFix"/>
<feBlend mode="normal" in="SourceGraphic" in2="BackgroundImageFix" result="shape"/>
<feGaussianBlur stdDeviation="29.4853" result="effect1_foregroundBlur_265_61"/>
</filter>
<filter id="filter3_f_265_61" x="130.039" y="50.7377" width="393.479" height="518.149" filterUnits="userSpaceOnUse" color-interpolation-filters="sRGB">
<feFlood flood-opacity="0" result="BackgroundImageFix"/>
<feBlend mode="normal" in="SourceGraphic" in2="BackgroundImageFix" result="shape"/>
<feGaussianBlur stdDeviation="29.4853" result="effect1_foregroundBlur_265_61"/>
</filter>
<filter id="filter4_f_265_61" x="282.413" y="260.308" width="100.262" height="100.262" filterUnits="userSpaceOnUse" color-interpolation-filters="sRGB">
<feFlood flood-opacity="0" result="BackgroundImageFix"/>
<feBlend mode="normal" in="SourceGraphic" in2="BackgroundImageFix" result="shape"/>
<feGaussianBlur stdDeviation="8.02094" result="effect1_foregroundBlur_265_61"/>
</filter>
<linearGradient id="paint0_linear_265_61" x1="523.869" y1="48.0098" x2="523.869" y2="238.264" gradientUnits="userSpaceOnUse">
<stop stop-color="#FF0000"/>
<stop offset="1" stop-color="#FF0000" stop-opacity="0"/>
</linearGradient>
<radialGradient id="paint1_radial_265_61" cx="0" cy="0" r="1" gradientUnits="userSpaceOnUse" gradientTransform="translate(258.204 353.097) rotate(-31.2797) scale(159.743 397.66)">
<stop stop-color="#00C8FF" stop-opacity="0.4"/>
<stop offset="1" stop-color="#0098C1"/>
</radialGradient>
<linearGradient id="paint2_linear_265_61" x1="603.421" y1="566.306" x2="603.421" y2="756.56" gradientUnits="userSpaceOnUse">
<stop stop-color="#FF0000"/>
<stop offset="1" stop-color="#FF0000" stop-opacity="0"/>
</linearGradient>
<radialGradient id="paint3_radial_265_61" cx="0" cy="0" r="1" gradientUnits="userSpaceOnUse" gradientTransform="translate(258.204 353.097) rotate(-31.2797) scale(159.743 397.66)">
<stop stop-color="#00C8FF" stop-opacity="0.4"/>
<stop offset="1" stop-color="#0098C1"/>
</radialGradient>
<linearGradient id="paint4_linear_265_61" x1="822.705" y1="402.285" x2="822.705" y2="592.539" gradientUnits="userSpaceOnUse">
<stop stop-color="#FF0000"/>
<stop offset="1" stop-color="#FF0000" stop-opacity="0"/>
</linearGradient>
<radialGradient id="paint5_radial_265_61" cx="0" cy="0" r="1" gradientUnits="userSpaceOnUse" gradientTransform="translate(324.848 231.253) rotate(88.7203) scale(159.743 397.66)">
<stop stop-color="#00C8FF" stop-opacity="0.4"/>
<stop offset="1" stop-color="#0098C1"/>
</radialGradient>
<linearGradient id="paint6_linear_265_61" x1="334.071" y1="212.031" x2="334.071" y2="402.285" gradientUnits="userSpaceOnUse">
<stop stop-color="#FF0000"/>
<stop offset="1" stop-color="#FF0000" stop-opacity="0"/>
</linearGradient>
<radialGradient id="paint7_radial_265_61" cx="0" cy="0" r="1" gradientUnits="userSpaceOnUse" gradientTransform="translate(324.848 231.253) rotate(88.7203) scale(159.743 397.66)">
<stop stop-color="#00C8FF" stop-opacity="0.4"/>
<stop offset="1" stop-color="#0098C1"/>
</radialGradient>
<linearGradient id="paint8_linear_265_61" x1="366.475" y1="482.236" x2="366.475" y2="672.49" gradientUnits="userSpaceOnUse">
<stop stop-color="#FF0000"/>
<stop offset="1" stop-color="#FF0000" stop-opacity="0"/>
</linearGradient>
<radialGradient id="paint9_radial_265_61" cx="0" cy="0" r="1" gradientUnits="userSpaceOnUse" gradientTransform="translate(397.046 348.18) rotate(-151.28) scale(159.743 397.66)">
<stop stop-color="#00C8FF" stop-opacity="0.4"/>
<stop offset="1" stop-color="#0098C1"/>
</radialGradient>
<linearGradient id="paint10_linear_265_61" x1="775.557" y1="154.194" x2="775.557" y2="344.448" gradientUnits="userSpaceOnUse">
<stop stop-color="#FF0000"/>
<stop offset="1" stop-color="#FF0000" stop-opacity="0"/>
</linearGradient>
<radialGradient id="paint11_radial_265_61" cx="0" cy="0" r="1" gradientUnits="userSpaceOnUse" gradientTransform="translate(397.046 348.18) rotate(-151.28) scale(159.743 397.66)">
<stop stop-color="#00C8FF" stop-opacity="0.4"/>
<stop offset="1" stop-color="#0098C1"/>
</radialGradient>
<radialGradient id="paint12_radial_265_61" cx="0" cy="0" r="1" gradientUnits="userSpaceOnUse" gradientTransform="translate(332.544 310.439) rotate(90) scale(34.089)">
<stop stop-color="#00C8FF"/>
<stop offset="1" stop-color="#00C8FF" stop-opacity="0.4"/>
</radialGradient>
</defs>
</svg>
