<svg width="1440" height="868" viewBox="0 0 1440 868" fill="none" xmlns="http://www.w3.org/2000/svg">
<g clip-path="url(#clip0_1562_1382)">
<path d="M86.0811 56.4844C85.5288 56.4844 85.0811 56.9321 85.0811 57.4844C85.0811 58.0367 85.5288 58.4844 86.0811 58.4844C86.6333 58.4844 87.0811 58.0367 87.0811 57.4844C87.0811 56.9321 86.6333 56.4844 86.0811 56.4844Z" fill="white" fill-opacity="0.05"/>
<path d="M51.9609 310.767C51.4087 310.767 50.9609 311.214 50.9609 311.767C50.9609 312.319 51.4087 312.767 51.9609 312.767C52.5132 312.767 52.9609 312.319 52.9609 311.767C52.9609 311.214 52.5132 310.767 51.9609 310.767Z" fill="white" fill-opacity="0.15"/>
<path d="M52.3911 250.643C51.8388 250.643 51.3911 251.09 51.3911 251.643C51.3911 252.195 51.8388 252.643 52.3911 252.643C52.9434 252.643 53.3911 252.195 53.3911 251.643C53.3911 251.09 52.9434 250.643 52.3911 250.643Z" fill="white" fill-opacity="0.1"/>
<path d="M583.238 691.556C582.686 691.556 582.238 692.003 582.238 692.556C582.238 693.108 582.686 693.556 583.238 693.556C583.79 693.556 584.238 693.108 584.238 692.556C584.238 692.003 583.79 691.556 583.238 691.556Z" fill="white" fill-opacity="0.1"/>
<path d="M822.313 593.417C821.761 593.417 821.313 593.865 821.313 594.417C821.313 594.969 821.761 595.417 822.313 595.417C822.865 595.417 823.313 594.969 823.313 594.417C823.313 593.865 822.865 593.417 822.313 593.417Z" fill="white" fill-opacity="0.1"/>
<path d="M833.498 14.0664C832.946 14.0664 832.498 14.5141 832.498 15.0664C832.498 15.6187 832.946 16.0664 833.498 16.0664C834.05 16.0664 834.498 15.6187 834.498 15.0664C834.498 14.5141 834.05 14.0664 833.498 14.0664Z" fill="white" fill-opacity="0.15"/>
<path d="M974.214 531.32C973.662 531.32 973.214 531.768 973.214 532.32C973.214 532.873 973.662 533.32 974.214 533.32C974.766 533.32 975.214 532.873 975.214 532.32C975.214 531.768 974.766 531.32 974.214 531.32Z" fill="white" fill-opacity="0.25"/>
<path d="M26.3013 473.99C25.749 473.99 25.3013 474.438 25.3013 474.99C25.3013 475.543 25.749 475.99 26.3013 475.99C26.8536 475.99 27.3013 475.543 27.3013 474.99C27.3013 474.438 26.8536 473.99 26.3013 473.99Z" fill="white" fill-opacity="0.1"/>
<path d="M475.121 540.299C474.569 540.299 474.121 540.747 474.121 541.299C474.121 541.851 474.569 542.299 475.121 542.299C475.673 542.299 476.121 541.851 476.121 541.299C476.121 540.747 475.673 540.299 475.121 540.299Z" fill="white"/>
<path d="M220.943 432.45C221.43 432.189 221.614 431.583 221.354 431.096C221.094 430.609 220.488 430.425 220.001 430.686C219.513 430.946 219.33 431.552 219.59 432.039C219.85 432.526 220.456 432.71 220.943 432.45Z" fill="white"/>
<path d="M1273.5 615.629C1272.94 615.629 1272.5 616.077 1272.5 616.629C1272.5 617.181 1272.94 617.629 1273.5 617.629C1274.05 617.629 1274.5 617.181 1274.5 616.629C1274.5 616.077 1274.05 615.629 1273.5 615.629Z" fill="white" fill-opacity="0.25"/>
<path d="M1083.16 178.146C1082.61 178.146 1082.16 178.593 1082.16 179.146C1082.16 179.698 1082.61 180.146 1083.16 180.146C1083.71 180.146 1084.16 179.698 1084.16 179.146C1084.16 178.593 1083.71 178.146 1083.16 178.146Z" fill="white" fill-opacity="0.1"/>
<path d="M906.054 135.193C905.502 135.193 905.054 135.641 905.054 136.193C905.054 136.746 905.502 137.193 906.054 137.193C906.606 137.193 907.054 136.746 907.054 136.193C907.054 135.641 906.606 135.193 906.054 135.193Z" fill="white" fill-opacity="0.05"/>
<path d="M788.25 527.415C787.698 527.415 787.25 527.863 787.25 528.415C787.25 528.967 787.698 529.415 788.25 529.415C788.802 529.415 789.25 528.967 789.25 528.415C789.25 527.863 788.802 527.415 788.25 527.415Z" fill="white" fill-opacity="0.1"/>
<path d="M350.145 521.882C350.632 521.622 350.816 521.016 350.556 520.529C350.295 520.042 349.689 519.858 349.202 520.118C348.715 520.379 348.531 520.985 348.792 521.472C349.052 521.959 349.658 522.143 350.145 521.882Z" fill="white" fill-opacity="0.05"/>
<path d="M1338.24 625.337C1337.68 625.337 1337.24 625.785 1337.24 626.337C1337.24 626.889 1337.68 627.337 1338.24 627.337C1338.79 627.337 1339.24 626.889 1339.24 626.337C1339.24 625.785 1338.79 625.337 1338.24 625.337Z" fill="white" fill-opacity="0.05"/>
<path d="M277.763 630.137C278.25 629.877 278.434 629.271 278.173 628.784C277.913 628.297 277.307 628.113 276.82 628.373C276.333 628.634 276.149 629.24 276.409 629.727C276.67 630.214 277.276 630.397 277.763 630.137Z" fill="white" fill-opacity="0.25"/>
<path d="M936.648 533.341C936.096 533.341 935.648 533.789 935.648 534.341C935.648 534.893 936.096 535.341 936.648 535.341C937.2 535.341 937.648 534.893 937.648 534.341C937.648 533.789 937.2 533.341 936.648 533.341Z" fill="white" fill-opacity="0.15"/>
<path d="M1058.12 553.299C1057.57 553.299 1057.12 553.523 1057.12 553.799C1057.12 554.075 1057.57 554.299 1058.12 554.299C1058.67 554.299 1059.12 554.075 1059.12 553.799C1059.12 553.523 1058.67 553.299 1058.12 553.299Z" fill="white" fill-opacity="0.15"/>
<path d="M108.651 77.9063C108.099 77.9063 107.651 78.354 107.651 78.9063C107.651 79.4585 108.099 79.9063 108.651 79.9063C109.203 79.9063 109.651 79.4585 109.651 78.9062C109.651 78.354 109.203 77.9063 108.651 77.9063Z" fill="white" fill-opacity="0.05"/>
<path d="M749.241 490.656C748.689 490.656 748.241 491.104 748.241 491.656C748.241 492.209 748.689 492.656 749.241 492.656C749.793 492.656 750.241 492.209 750.241 491.656C750.241 491.104 749.793 490.656 749.241 490.656Z" fill="white" fill-opacity="0.25"/>
<path d="M190.821 793.459C190.269 793.459 189.821 793.907 189.821 794.459C189.821 795.011 190.269 795.459 190.821 795.459C191.374 795.459 191.821 795.011 191.821 794.459C191.821 793.907 191.374 793.459 190.821 793.459Z" fill="white" fill-opacity="0.25"/>
<path d="M881.398 498.65C880.846 498.65 880.398 499.098 880.398 499.65C880.398 500.203 880.846 500.65 881.398 500.65C881.95 500.65 882.398 500.203 882.398 499.65C882.398 499.098 881.95 498.65 881.398 498.65Z" fill="white" fill-opacity="0.05"/>
<path d="M905.824 509.466C905.272 509.466 904.824 509.914 904.824 510.466C904.824 511.018 905.272 511.466 905.824 511.466C906.377 511.466 906.824 511.018 906.824 510.466C906.824 509.914 906.377 509.466 905.824 509.466Z" fill="white" fill-opacity="0.1"/>
<path d="M923.927 126.258C923.375 126.258 922.927 126.706 922.927 127.258C922.927 127.81 923.375 128.258 923.927 128.258C924.48 128.258 924.927 127.81 924.927 127.258C924.927 126.706 924.48 126.258 923.927 126.258Z" fill="white" fill-opacity="0.25"/>
<path d="M98.1211 115.2C97.5688 115.2 97.1211 115.648 97.1211 116.2C97.1211 116.752 97.5688 117.2 98.1211 117.2C98.6734 117.2 99.1211 116.752 99.1211 116.2C99.1211 115.648 98.6734 115.2 98.1211 115.2Z" fill="white" fill-opacity="0.1"/>
<path d="M125.141 766.392C124.589 766.392 124.141 766.839 124.141 767.392C124.141 767.944 124.589 768.392 125.141 768.392C125.693 768.392 126.141 767.944 126.141 767.392C126.141 766.839 125.693 766.392 125.141 766.392Z" fill="white" fill-opacity="0.25"/>
<path d="M97.1924 334.929C97.6795 334.669 97.8632 334.063 97.6029 333.576C97.3425 333.089 96.7366 332.905 96.2495 333.165C95.7625 333.426 95.5787 334.032 95.8391 334.519C96.0995 335.006 96.7053 335.189 97.1924 334.929Z" fill="white" fill-opacity="0.15"/>
<path d="M157.343 514.483C157.83 514.222 158.014 513.616 157.754 513.129C157.493 512.642 156.888 512.459 156.4 512.719C155.913 512.979 155.73 513.585 155.99 514.072C156.25 514.559 156.856 514.743 157.343 514.483Z" fill="white" fill-opacity="0.05"/>
<path d="M694.797 524.591C695.349 524.591 695.797 524.143 695.797 523.591C695.797 523.039 695.349 522.591 694.797 522.591C694.245 522.591 693.797 523.039 693.797 523.591C693.797 524.143 694.245 524.591 694.797 524.591Z" fill="white"/>
<path d="M224.241 45.2959C223.689 45.2959 223.241 45.7436 223.241 46.2959C223.241 46.8482 223.689 47.2959 224.241 47.2959C224.793 47.2959 225.241 46.8482 225.241 46.2959C225.241 45.7436 224.793 45.2959 224.241 45.2959Z" fill="white" fill-opacity="0.25"/>
<path d="M1072.85 23.335C1072.3 23.335 1071.85 23.7827 1071.85 24.335C1071.85 24.8872 1072.3 25.335 1072.85 25.335C1073.4 25.335 1073.85 24.8872 1073.85 24.335C1073.85 23.7827 1073.4 23.335 1072.85 23.335Z" fill="white" fill-opacity="0.05"/>
<path d="M334.571 202.736C334.019 202.736 333.571 203.184 333.571 203.736C333.571 204.289 334.019 204.736 334.571 204.736C335.124 204.736 335.571 204.289 335.571 203.736C335.571 203.184 335.124 202.736 334.571 202.736Z" fill="white" fill-opacity="0.25"/>
<path d="M668.344 637.898C668.068 637.898 667.844 638.122 667.844 638.398C667.844 638.675 668.068 638.898 668.344 638.898C668.62 638.898 668.844 638.675 668.844 638.398C668.844 638.122 668.62 637.898 668.344 637.898Z" fill="white" fill-opacity="0.05"/>
<path d="M976.952 731.013C976.676 731.013 976.452 731.237 976.452 731.513C976.452 731.789 976.676 732.013 976.952 732.013C977.228 732.013 977.452 731.789 977.452 731.513C977.452 731.237 977.228 731.013 976.952 731.013Z" fill="white" fill-opacity="0.05"/>
<path d="M840.84 660.575C840.564 660.575 840.34 660.799 840.34 661.075C840.34 661.351 840.564 661.575 840.84 661.575C841.116 661.575 841.34 661.351 841.34 661.075C841.34 660.799 841.116 660.575 840.84 660.575Z" fill="white" fill-opacity="0.1"/>
<path d="M828.452 622.733C828.176 622.733 827.952 622.957 827.952 623.233C827.952 623.51 828.176 623.733 828.452 623.733C828.728 623.733 828.952 623.51 828.952 623.233C828.952 622.957 828.728 622.733 828.452 622.733Z" fill="white" fill-opacity="0.1"/>
<path d="M340.671 168.133C340.395 168.133 340.171 168.357 340.171 168.633C340.171 168.909 340.395 169.133 340.671 169.133C340.947 169.133 341.171 168.909 341.171 168.633C341.171 168.357 340.947 168.133 340.671 168.133Z" fill="white" fill-opacity="0.25"/>
<path d="M394.063 726.658C393.787 726.658 393.563 726.882 393.563 727.158C393.563 727.434 393.787 727.658 394.063 727.658C394.339 727.658 394.563 727.434 394.563 727.158C394.563 726.882 394.339 726.658 394.063 726.658Z" fill="white" fill-opacity="0.15"/>
<path d="M892.728 549.575C892.451 549.575 892.228 549.799 892.228 550.075C892.228 550.351 892.451 550.575 892.728 550.575C893.004 550.575 893.228 550.351 893.228 550.075C893.228 549.799 893.004 549.575 892.728 549.575Z" fill="white" fill-opacity="0.25"/>
<path d="M1312.78 581.845C1312.51 581.845 1312.28 582.069 1312.28 582.345C1312.28 582.621 1312.51 582.845 1312.78 582.845C1313.06 582.845 1313.28 582.621 1313.28 582.345C1313.28 582.069 1313.06 581.845 1312.78 581.845Z" fill="white" fill-opacity="0.05"/>
<path d="M1110.5 412.085C1110.23 412.085 1110 412.309 1110 412.585C1110 412.861 1110.23 413.085 1110.5 413.085C1110.78 413.085 1111 412.861 1111 412.585C1111 412.309 1110.78 412.085 1110.5 412.085Z" fill="white" fill-opacity="0.1"/>
<path d="M326.601 110.432C326.325 110.432 326.101 110.655 326.101 110.932C326.101 111.208 326.325 111.432 326.601 111.432C326.877 111.432 327.101 111.208 327.101 110.932C327.101 110.655 326.877 110.432 326.601 110.432Z" fill="white" fill-opacity="0.25"/>
<path d="M66.7412 539.745C66.4651 539.745 66.2412 539.969 66.2412 540.245C66.2412 540.521 66.4651 540.745 66.7412 540.745C67.0174 540.745 67.2412 540.521 67.2412 540.245C67.2412 539.969 67.0174 539.745 66.7412 539.745Z" fill="white" fill-opacity="0.05"/>
<path d="M894.5 173.912C894.224 173.912 894 174.136 894 174.412C894 174.688 894.224 174.912 894.5 174.912C894.776 174.912 895 174.688 895 174.412C895 174.136 894.776 173.912 894.5 173.912Z" fill="white" fill-opacity="0.05"/>
<path d="M937.385 19.6475C937.109 19.6475 936.885 19.8713 936.885 20.1475C936.885 20.4236 937.109 20.6475 937.385 20.6475C937.661 20.6475 937.885 20.4236 937.885 20.1475C937.885 19.8713 937.661 19.6475 937.385 19.6475Z" fill="white"/>
<path d="M1015 275.66C1014.72 275.66 1014.5 275.884 1014.5 276.16C1014.5 276.436 1014.72 276.66 1015 276.66C1015.28 276.66 1015.5 276.436 1015.5 276.16C1015.5 275.884 1015.28 275.66 1015 275.66Z" fill="white" fill-opacity="0.05"/>
<path d="M1235.27 172.664C1234.99 172.664 1234.77 172.888 1234.77 173.164C1234.77 173.44 1234.99 173.664 1235.27 173.664C1235.54 173.664 1235.77 173.44 1235.77 173.164C1235.77 172.888 1235.54 172.664 1235.27 172.664Z" fill="white" fill-opacity="0.05"/>
<path d="M828.102 625.793C827.825 625.793 827.602 626.017 827.602 626.293C827.602 626.569 827.825 626.793 828.102 626.793C828.378 626.793 828.602 626.569 828.602 626.293C828.602 626.017 828.378 625.793 828.102 625.793Z" fill="white" fill-opacity="0.05"/>
<path d="M675.657 588.671C675.933 588.671 676.157 588.447 676.157 588.171C676.157 587.895 675.933 587.671 675.657 587.671C675.381 587.671 675.157 587.895 675.157 588.171C675.157 588.447 675.381 588.671 675.657 588.671Z" fill="white"/>
<path d="M32.3013 18.9453C32.0251 18.9453 31.8013 19.1692 31.8013 19.4453C31.8013 19.7215 32.0251 19.9453 32.3013 19.9453C32.5774 19.9453 32.8013 19.7215 32.8013 19.4453C32.8013 19.1692 32.5774 18.9453 32.3013 18.9453Z" fill="white" fill-opacity="0.1"/>
<path d="M547.065 581.465C546.789 581.465 546.565 581.689 546.565 581.965C546.565 582.241 546.789 582.465 547.065 582.465C547.341 582.465 547.565 582.241 547.565 581.965C547.565 581.689 547.341 581.465 547.065 581.465Z" fill="white" fill-opacity="0.25"/>
<path d="M1050.94 117.328C1050.66 117.328 1050.44 117.552 1050.44 117.828C1050.44 118.104 1050.66 118.328 1050.94 118.328C1051.22 118.328 1051.44 118.104 1051.44 117.828C1051.44 117.552 1051.22 117.328 1050.94 117.328Z" fill="white"/>
<path d="M965.006 329.297C964.73 329.297 964.506 329.521 964.506 329.797C964.506 330.073 964.73 330.297 965.006 330.297C965.282 330.297 965.506 330.073 965.506 329.797C965.506 329.521 965.282 329.297 965.006 329.297Z" fill="white"/>
<path d="M141.871 789.109C141.595 789.109 141.371 789.333 141.371 789.609C141.371 789.886 141.595 790.109 141.871 790.109C142.147 790.109 142.371 789.886 142.371 789.609C142.371 789.333 142.147 789.109 141.871 789.109Z" fill="white" fill-opacity="0.1"/>
<path d="M1388.5 97.3828C1388.22 97.3828 1388 97.6067 1388 97.8828C1388 98.159 1388.22 98.3828 1388.5 98.3828C1388.78 98.3828 1389 98.159 1389 97.8828C1389 97.6067 1388.78 97.3828 1388.5 97.3828Z" fill="white"/>
<path d="M417.32 7.56445C417.044 7.56445 416.82 7.78831 416.82 8.06445C416.82 8.3406 417.044 8.56445 417.32 8.56445C417.596 8.56445 417.82 8.3406 417.82 8.06445C417.82 7.78831 417.596 7.56445 417.32 7.56445Z" fill="white" fill-opacity="0.15"/>
<path d="M867.041 481.002C866.765 481.002 866.541 481.226 866.541 481.502C866.541 481.778 866.765 482.002 867.041 482.002C867.317 482.002 867.541 481.778 867.541 481.502C867.541 481.226 867.317 481.002 867.041 481.002Z" fill="white" fill-opacity="0.1"/>
<path d="M682.715 572.45C682.991 572.45 683.215 572.226 683.215 571.95C683.215 571.674 682.991 571.45 682.715 571.45C682.439 571.45 682.215 571.674 682.215 571.95C682.215 572.226 682.439 572.45 682.715 572.45Z" fill="white" fill-opacity="0.05"/>
<path d="M547.152 719.748C546.876 719.748 546.652 719.972 546.652 720.248C546.652 720.524 546.876 720.748 547.152 720.748C547.428 720.748 547.652 720.524 547.652 720.248C547.652 719.972 547.428 719.748 547.152 719.748Z" fill="white" fill-opacity="0.25"/>
<path d="M477.932 798.734C477.656 798.734 477.432 798.958 477.432 799.234C477.432 799.511 477.656 799.734 477.932 799.734C478.208 799.734 478.432 799.511 478.432 799.234C478.432 798.958 478.208 798.734 477.932 798.734Z" fill="white" fill-opacity="0.25"/>
<path d="M851.536 150.267C851.26 150.267 851.036 150.49 851.036 150.767C851.036 151.043 851.26 151.267 851.536 151.267C851.812 151.267 852.036 151.043 852.036 150.767C852.036 150.49 851.812 150.267 851.536 150.267Z" fill="white" fill-opacity="0.05"/>
<path d="M373.704 416.348C373.947 416.218 374.039 415.915 373.909 415.672C373.779 415.428 373.476 415.336 373.232 415.466C372.989 415.597 372.897 415.9 373.027 416.143C373.157 416.387 373.46 416.479 373.704 416.348Z" fill="white" fill-opacity="0.25"/>
<path d="M1323.81 782.292C1323.53 782.292 1323.31 782.516 1323.31 782.792C1323.31 783.068 1323.53 783.292 1323.81 783.292C1324.09 783.292 1324.31 783.068 1324.31 782.792C1324.31 782.516 1324.09 782.292 1323.81 782.292Z" fill="white" fill-opacity="0.25"/>
<path d="M1262.31 317.803C1262.03 317.803 1261.81 318.027 1261.81 318.303C1261.81 318.579 1262.03 318.803 1262.31 318.803C1262.59 318.803 1262.81 318.579 1262.81 318.303C1262.81 318.027 1262.59 317.803 1262.31 317.803Z" fill="white" fill-opacity="0.05"/>
<path d="M188.485 322.521C188.729 322.391 188.821 322.088 188.69 321.845C188.56 321.601 188.257 321.509 188.014 321.639C187.77 321.769 187.678 322.072 187.808 322.316C187.939 322.559 188.242 322.651 188.485 322.521Z" fill="white" fill-opacity="0.25"/>
<path d="M826.012 671.351C825.736 671.351 825.512 671.574 825.512 671.851C825.512 672.127 825.736 672.351 826.012 672.351C826.288 672.351 826.512 672.127 826.512 671.851C826.512 671.574 826.288 671.351 826.012 671.351Z" fill="white" fill-opacity="0.15"/>
<path d="M244.011 710.455C243.735 710.455 243.511 710.679 243.511 710.955C243.511 711.231 243.735 711.455 244.011 711.455C244.287 711.455 244.511 711.231 244.511 710.955C244.511 710.679 244.287 710.455 244.011 710.455Z" fill="white" fill-opacity="0.05"/>
<path d="M294.141 175.702C293.865 175.702 293.641 175.926 293.641 176.202C293.641 176.478 293.865 176.702 294.141 176.702C294.417 176.702 294.641 176.478 294.641 176.202C294.641 175.926 294.417 175.702 294.141 175.702Z" fill="white" fill-opacity="0.15"/>
<path d="M238.631 741.121C238.355 741.121 238.131 741.345 238.131 741.621C238.131 741.897 238.355 742.121 238.631 742.121C238.907 742.121 239.131 741.897 239.131 741.621C239.131 741.345 238.907 741.121 238.631 741.121Z" fill="white"/>
<path d="M899.558 599.757C899.282 599.757 899.058 599.981 899.058 600.257C899.058 600.533 899.282 600.757 899.558 600.757C899.834 600.757 900.058 600.533 900.058 600.257C900.058 599.981 899.834 599.757 899.558 599.757Z" fill="white" fill-opacity="0.15"/>
<path d="M1281.66 49.3838C1281.38 49.3838 1281.16 49.6076 1281.16 49.8838C1281.16 50.1599 1281.38 50.3838 1281.66 50.3838C1281.93 50.3838 1282.16 50.1599 1282.16 49.8838C1282.16 49.6076 1281.93 49.3838 1281.66 49.3838Z" fill="white" fill-opacity="0.05"/>
<path d="M748.91 574.217C748.634 574.217 748.41 574.441 748.41 574.717C748.41 574.993 748.634 575.217 748.91 575.217C749.186 575.217 749.41 574.993 749.41 574.717C749.41 574.441 749.186 574.217 748.91 574.217Z" fill="white" fill-opacity="0.25"/>
<path d="M873.283 707.3C873.007 707.3 872.783 707.524 872.783 707.8C872.783 708.076 873.007 708.3 873.283 708.3C873.559 708.3 873.783 708.076 873.783 707.8C873.783 707.524 873.559 707.3 873.283 707.3Z" fill="white" fill-opacity="0.25"/>
<path d="M897.807 763.817C897.531 763.817 897.307 764.041 897.307 764.317C897.307 764.594 897.531 764.817 897.807 764.817C898.083 764.817 898.307 764.594 898.307 764.317C898.307 764.041 898.083 763.817 897.807 763.817Z" fill="white" fill-opacity="0.25"/>
<path d="M168.137 528.344C168.381 528.214 168.473 527.911 168.343 527.668C168.213 527.424 167.91 527.332 167.666 527.463C167.423 527.593 167.331 527.896 167.461 528.139C167.591 528.383 167.894 528.475 168.137 528.344Z" fill="white"/>
<path d="M31.3208 92.9697C31.0447 92.9697 30.8208 93.1936 30.8208 93.4697C30.8208 93.7459 31.0447 93.9697 31.3208 93.9697C31.5969 93.9697 31.8208 93.7459 31.8208 93.4697C31.8208 93.1936 31.5969 92.9697 31.3208 92.9697Z" fill="white" fill-opacity="0.25"/>
<path d="M1315.84 75.3359C1315.56 75.3359 1315.34 75.5598 1315.34 75.8359C1315.34 76.1121 1315.56 76.3359 1315.84 76.3359C1316.11 76.3359 1316.34 76.1121 1316.34 75.8359C1316.34 75.5598 1316.11 75.3359 1315.84 75.3359Z" fill="white" fill-opacity="0.15"/>
<path d="M431.661 730.095C431.385 730.095 431.161 730.319 431.161 730.595C431.161 730.871 431.385 731.095 431.661 731.095C431.937 731.095 432.161 730.871 432.161 730.595C432.161 730.319 431.937 730.095 431.661 730.095Z" fill="white" fill-opacity="0.05"/>
<path d="M1266.84 269.242C1266.57 269.242 1266.34 269.466 1266.34 269.742C1266.34 270.018 1266.57 270.242 1266.84 270.242C1267.12 270.242 1267.34 270.018 1267.34 269.742C1267.34 269.466 1267.12 269.242 1266.84 269.242Z" fill="white" fill-opacity="0.25"/>
<path d="M69.6211 222.497C69.345 222.497 69.1211 222.721 69.1211 222.997C69.1211 223.273 69.345 223.497 69.6211 223.497C69.8972 223.497 70.1211 223.273 70.1211 222.997C70.1211 222.721 69.8972 222.497 69.6211 222.497Z" fill="white" fill-opacity="0.25"/>
<path d="M142.541 713.193C142.265 713.193 142.041 713.417 142.041 713.693C142.041 713.97 142.265 714.193 142.541 714.193C142.817 714.193 143.041 713.97 143.041 713.693C143.041 713.417 142.817 713.193 142.541 713.193Z" fill="white" fill-opacity="0.1"/>
<path d="M304.359 556.375C304.602 556.245 304.694 555.942 304.564 555.698C304.434 555.454 304.131 555.363 303.887 555.493C303.644 555.623 303.552 555.926 303.682 556.169C303.812 556.413 304.115 556.505 304.359 556.375Z" fill="white" fill-opacity="0.05"/>
<path d="M944.707 532.087C944.431 532.087 944.207 532.311 944.207 532.587C944.207 532.863 944.431 533.087 944.707 533.087C944.983 533.087 945.207 532.863 945.207 532.587C945.207 532.311 944.983 532.087 944.707 532.087Z" fill="white" fill-opacity="0.1"/>
<path d="M831.857 670.296C831.581 670.296 831.357 670.52 831.357 670.796C831.357 671.072 831.581 671.296 831.857 671.296C832.134 671.296 832.357 671.072 832.357 670.796C832.357 670.52 832.134 670.296 831.857 670.296Z" fill="white" fill-opacity="0.1"/>
<path d="M509.894 413.433C509.618 413.433 509.394 413.656 509.394 413.933C509.394 414.209 509.618 414.433 509.894 414.433C510.17 414.433 510.394 414.209 510.394 413.933C510.394 413.656 510.17 413.433 509.894 413.433Z" fill="white" fill-opacity="0.1"/>
<path d="M174.083 380.553C174.327 380.423 174.419 380.12 174.289 379.877C174.158 379.633 173.855 379.541 173.612 379.672C173.368 379.802 173.276 380.105 173.407 380.348C173.537 380.592 173.84 380.684 174.083 380.553Z" fill="white" fill-opacity="0.25"/>
<path d="M1107.56 180.387C1107.29 180.387 1107.06 180.611 1107.06 180.887C1107.06 181.163 1107.29 181.387 1107.56 181.387C1107.84 181.387 1108.06 181.163 1108.06 180.887C1108.06 180.611 1107.84 180.387 1107.56 180.387Z" fill="white" fill-opacity="0.05"/>
<path d="M577.979 526.177C578.256 526.177 578.479 525.953 578.479 525.677C578.479 525.401 578.256 525.177 577.979 525.177C577.703 525.177 577.479 525.401 577.479 525.677C577.479 525.953 577.703 526.177 577.979 526.177Z" fill="white"/>
<path d="M1271.75 644.637C1271.47 644.637 1271.25 644.861 1271.25 645.137C1271.25 645.413 1271.47 645.637 1271.75 645.637C1272.03 645.637 1272.25 645.413 1272.25 645.137C1272.25 644.861 1272.03 644.637 1271.75 644.637Z" fill="white" fill-opacity="0.05"/>
<path d="M607.169 525.381C607.445 525.381 607.669 525.157 607.669 524.881C607.669 524.605 607.445 524.381 607.169 524.381C606.893 524.381 606.669 524.605 606.669 524.881C606.669 525.157 606.893 525.381 607.169 525.381Z" fill="white" fill-opacity="0.25"/>
<path d="M1146.21 554.383C1145.93 554.383 1145.71 554.607 1145.71 554.883C1145.71 555.159 1145.93 555.383 1146.21 555.383C1146.48 555.383 1146.71 555.159 1146.71 554.883C1146.71 554.607 1146.48 554.383 1146.21 554.383Z" fill="white" fill-opacity="0.15"/>
<path d="M12.4712 207.645C12.195 207.645 11.9712 207.868 11.9712 208.145C11.9712 208.421 12.195 208.645 12.4712 208.645C12.7473 208.645 12.9712 208.421 12.9712 208.145C12.9712 207.868 12.7473 207.645 12.4712 207.645Z" fill="white" fill-opacity="0.25"/>
<path d="M1240.04 702.685C1239.77 702.685 1239.54 702.908 1239.54 703.185C1239.54 703.461 1239.77 703.685 1240.04 703.685C1240.32 703.685 1240.54 703.461 1240.54 703.185C1240.54 702.908 1240.32 702.685 1240.04 702.685Z" fill="white" fill-opacity="0.15"/>
<path d="M65.8711 251.07C65.595 251.07 65.3711 251.294 65.3711 251.57C65.3711 251.846 65.595 252.07 65.8711 252.07C66.1472 252.07 66.3711 251.846 66.3711 251.57C66.3711 251.294 66.1472 251.07 65.8711 251.07Z" fill="white" fill-opacity="0.1"/>
<path d="M265.151 725.296C264.875 725.296 264.651 725.52 264.651 725.796C264.651 726.072 264.875 726.296 265.151 726.296C265.428 726.296 265.651 726.072 265.651 725.796C265.651 725.52 265.428 725.296 265.151 725.296Z" fill="white"/>
<path d="M1049.62 229.299C1049.34 229.299 1049.12 229.523 1049.12 229.799C1049.12 230.075 1049.34 230.299 1049.62 230.299C1049.9 230.299 1050.12 230.075 1050.12 229.799C1050.12 229.523 1049.9 229.299 1049.62 229.299Z" fill="white"/>
<path d="M908.221 663.207C907.945 663.207 907.721 663.431 907.721 663.707C907.721 663.983 907.945 664.207 908.221 664.207C908.497 664.207 908.721 663.983 908.721 663.707C908.721 663.431 908.497 663.207 908.221 663.207Z" fill="white" fill-opacity="0.05"/>
<path d="M662.248 712.552C661.971 712.552 661.748 712.776 661.748 713.052C661.748 713.328 661.971 713.552 662.248 713.552C662.524 713.552 662.748 713.328 662.748 713.052C662.748 712.776 662.524 712.552 662.248 712.552Z" fill="white" fill-opacity="0.25"/>
<path d="M647.804 780.51C647.528 780.51 647.304 780.734 647.304 781.01C647.304 781.286 647.528 781.51 647.804 781.51C648.08 781.51 648.304 781.286 648.304 781.01C648.304 780.734 648.08 780.51 647.804 780.51Z" fill="white"/>
<path d="M705.435 784.676C705.158 784.676 704.935 784.9 704.935 785.176C704.935 785.452 705.158 785.676 705.435 785.676C705.711 785.676 705.935 785.452 705.935 785.176C705.935 784.9 705.711 784.676 705.435 784.676Z" fill="white" fill-opacity="0.15"/>
<path d="M359.764 548.975C360.007 548.845 360.099 548.542 359.969 548.299C359.839 548.055 359.536 547.963 359.293 548.093C359.049 548.224 358.957 548.527 359.087 548.77C359.217 549.014 359.52 549.105 359.764 548.975Z" fill="white" fill-opacity="0.1"/>
<path d="M599.395 479.352C599.119 479.352 598.895 479.575 598.895 479.852C598.895 480.128 599.119 480.352 599.395 480.352C599.671 480.352 599.895 480.128 599.895 479.852C599.895 479.575 599.671 479.352 599.395 479.352Z" fill="white" fill-opacity="0.05"/>
<path d="M637.902 617.639C638.178 617.639 638.402 617.415 638.402 617.139C638.402 616.863 638.178 616.639 637.902 616.639C637.626 616.639 637.402 616.863 637.402 617.139C637.402 617.415 637.626 617.639 637.902 617.639Z" fill="white" fill-opacity="0.05"/>
<path d="M291.645 410.838C291.888 410.707 291.98 410.404 291.85 410.161C291.72 409.917 291.417 409.825 291.173 409.956C290.93 410.086 290.838 410.389 290.968 410.632C291.098 410.876 291.401 410.968 291.645 410.838Z" fill="white"/>
<path d="M1299.9 612.955C1299.63 612.955 1299.4 613.179 1299.4 613.455C1299.4 613.731 1299.63 613.955 1299.9 613.955C1300.18 613.955 1300.4 613.731 1300.4 613.455C1300.4 613.179 1300.18 612.955 1299.9 612.955Z" fill="white" fill-opacity="0.25"/>
<path d="M869.361 509.937C869.085 509.937 868.861 510.16 868.861 510.437C868.861 510.713 869.085 510.937 869.361 510.937C869.637 510.937 869.861 510.713 869.861 510.437C869.861 510.16 869.637 509.937 869.361 509.937Z" fill="white" fill-opacity="0.05"/>
<path d="M783.92 712.437C783.644 712.437 783.42 712.66 783.42 712.937C783.42 713.213 783.644 713.437 783.92 713.437C784.196 713.437 784.42 713.213 784.42 712.937C784.42 712.66 784.196 712.437 783.92 712.437Z" fill="white" fill-opacity="0.15"/>
<path d="M225.782 574.964C226.026 574.833 226.117 574.53 225.987 574.287C225.857 574.043 225.554 573.951 225.311 574.082C225.067 574.212 224.975 574.515 225.105 574.758C225.236 575.002 225.538 575.094 225.782 574.964Z" fill="white" fill-opacity="0.1"/>
<path d="M532.695 658.047C532.419 658.047 532.195 658.271 532.195 658.547C532.195 658.823 532.419 659.047 532.695 659.047C532.971 659.047 533.195 658.823 533.195 658.547C533.195 658.271 532.971 658.047 532.695 658.047Z" fill="white" fill-opacity="0.25"/>
<path d="M494.249 455.99C493.973 455.99 493.749 456.214 493.749 456.49C493.749 456.766 493.973 456.99 494.249 456.99C494.525 456.99 494.749 456.766 494.749 456.49C494.749 456.214 494.525 455.99 494.249 455.99Z" fill="white" fill-opacity="0.25"/>
<path d="M1263.9 492.644C1263.63 492.644 1263.4 492.867 1263.4 493.144C1263.4 493.42 1263.63 493.644 1263.9 493.644C1264.18 493.644 1264.4 493.42 1264.4 493.144C1264.4 492.867 1264.18 492.644 1263.9 492.644Z" fill="white" fill-opacity="0.25"/>
<path d="M403.459 692.811C403.183 692.811 402.959 693.034 402.959 693.311C402.959 693.587 403.183 693.811 403.459 693.811C403.735 693.811 403.959 693.587 403.959 693.311C403.959 693.034 403.735 692.811 403.459 692.811Z" fill="white" fill-opacity="0.05"/>
<path d="M334.271 79.7734C333.995 79.7734 333.771 79.9973 333.771 80.2734C333.771 80.5496 333.995 80.7734 334.271 80.7734C334.547 80.7734 334.771 80.5496 334.771 80.2734C334.771 79.9973 334.547 79.7734 334.271 79.7734Z" fill="white" fill-opacity="0.15"/>
<path d="M106.591 186.917C106.315 186.917 106.091 187.141 106.091 187.417C106.091 187.693 106.315 187.917 106.591 187.917C106.867 187.917 107.091 187.693 107.091 187.417C107.091 187.141 106.867 186.917 106.591 186.917Z" fill="white" fill-opacity="0.25"/>
<path d="M1232.6 610.971C1232.32 610.971 1232.1 611.195 1232.1 611.471C1232.1 611.747 1232.32 611.971 1232.6 611.971C1232.87 611.971 1233.1 611.747 1233.1 611.471C1233.1 611.195 1232.87 610.971 1232.6 610.971Z" fill="white" fill-opacity="0.05"/>
<path d="M853.647 204.174C853.371 204.174 853.147 204.398 853.147 204.674C853.147 204.95 853.371 205.174 853.647 205.174C853.923 205.174 854.147 204.95 854.147 204.674C854.147 204.398 853.923 204.174 853.647 204.174Z" fill="white" fill-opacity="0.15"/>
<path d="M192.179 314.52C192.423 314.39 192.515 314.087 192.385 313.844C192.255 313.6 191.952 313.508 191.708 313.638C191.465 313.768 191.373 314.071 191.503 314.315C191.633 314.559 191.936 314.65 192.179 314.52Z" fill="white" fill-opacity="0.15"/>
<path d="M1307.63 270.314C1307.35 270.314 1307.13 270.538 1307.13 270.814C1307.13 271.091 1307.35 271.314 1307.63 271.314C1307.9 271.314 1308.13 271.091 1308.13 270.814C1308.13 270.538 1307.9 270.314 1307.63 270.314Z" fill="white" fill-opacity="0.25"/>
<path d="M254.197 608.201C254.441 608.071 254.532 607.768 254.402 607.524C254.272 607.281 253.969 607.189 253.726 607.319C253.482 607.449 253.39 607.752 253.52 607.996C253.651 608.239 253.954 608.331 254.197 608.201Z" fill="white" fill-opacity="0.15"/>
<path d="M72.0811 517.095C71.8049 517.095 71.5811 517.319 71.5811 517.595C71.5811 517.871 71.8049 518.095 72.0811 518.095C72.3572 518.095 72.5811 517.871 72.5811 517.595C72.5811 517.319 72.3572 517.095 72.0811 517.095Z" fill="white" fill-opacity="0.1"/>
<path d="M1363.14 402.466C1362.87 402.466 1362.64 402.69 1362.64 402.966C1362.64 403.242 1362.87 403.466 1363.14 403.466C1363.42 403.466 1363.64 403.242 1363.64 402.966C1363.64 402.69 1363.42 402.466 1363.14 402.466Z" fill="white" fill-opacity="0.05"/>
<path d="M367.434 648.063C367.677 647.933 367.769 647.63 367.639 647.386C367.509 647.143 367.206 647.051 366.962 647.181C366.719 647.311 366.627 647.614 366.757 647.858C366.887 648.101 367.19 648.193 367.434 648.063Z" fill="white" fill-opacity="0.05"/>
<path d="M224.395 457.318C224.638 457.188 224.73 456.885 224.6 456.641C224.47 456.398 224.167 456.306 223.923 456.436C223.68 456.566 223.588 456.869 223.718 457.113C223.848 457.356 224.151 457.448 224.395 457.318Z" fill="white" fill-opacity="0.1"/>
<path d="M626.076 397.957C625.8 397.957 625.576 398.181 625.576 398.457C625.576 398.733 625.8 398.957 626.076 398.957C626.352 398.957 626.576 398.733 626.576 398.457C626.576 398.181 626.352 397.957 626.076 397.957Z" fill="white" fill-opacity="0.1"/>
<path d="M1309.01 773.607C1308.73 773.607 1308.51 773.831 1308.51 774.107C1308.51 774.384 1308.73 774.607 1309.01 774.607C1309.28 774.607 1309.51 774.384 1309.51 774.107C1309.51 773.831 1309.28 773.607 1309.01 773.607Z" fill="white" fill-opacity="0.05"/>
<path d="M763.162 548.174C762.885 548.174 762.662 548.398 762.662 548.674C762.662 548.95 762.885 549.174 763.162 549.174C763.438 549.174 763.662 548.95 763.662 548.674C763.662 548.398 763.438 548.174 763.162 548.174Z" fill="white" fill-opacity="0.15"/>
<path d="M1008.56 513.54C1008.28 513.54 1008.06 513.764 1008.06 514.04C1008.06 514.316 1008.28 514.54 1008.56 514.54C1008.84 514.54 1009.06 514.316 1009.06 514.04C1009.06 513.764 1008.84 513.54 1008.56 513.54Z" fill="white" fill-opacity="0.05"/>
<path d="M834.417 284.945C834.141 284.945 833.917 285.169 833.917 285.445C833.917 285.721 834.141 285.945 834.417 285.945C834.693 285.945 834.917 285.721 834.917 285.445C834.917 285.169 834.693 284.945 834.417 284.945Z" fill="white"/>
<path d="M277.511 291.407C277.754 291.277 277.846 290.974 277.716 290.73C277.586 290.487 277.283 290.395 277.039 290.525C276.796 290.655 276.704 290.958 276.834 291.202C276.964 291.445 277.267 291.537 277.511 291.407Z" fill="white" fill-opacity="0.25"/>
<path d="M697.53 566.6C697.254 566.6 697.03 566.823 697.03 567.1C697.03 567.376 697.254 567.6 697.53 567.6C697.806 567.6 698.03 567.376 698.03 567.1C698.03 566.823 697.806 566.6 697.53 566.6Z" fill="white" fill-opacity="0.15"/>
<path d="M261.936 316.468C262.18 316.338 262.272 316.035 262.142 315.792C262.011 315.548 261.708 315.456 261.465 315.587C261.221 315.717 261.129 316.02 261.26 316.263C261.39 316.507 261.693 316.599 261.936 316.468Z" fill="white" fill-opacity="0.25"/>
<path d="M503.789 754.272C503.513 754.272 503.289 754.496 503.289 754.772C503.289 755.049 503.513 755.272 503.789 755.272C504.065 755.272 504.289 755.049 504.289 754.772C504.289 754.496 504.065 754.272 503.789 754.272Z" fill="white" fill-opacity="0.25"/>
<path d="M789.315 192.691C789.039 192.691 788.815 192.915 788.815 193.191C788.815 193.468 789.039 193.691 789.315 193.691C789.591 193.691 789.815 193.468 789.815 193.191C789.815 192.915 789.591 192.691 789.315 192.691Z" fill="white" fill-opacity="0.25"/>
<path d="M1260.96 162.332C1260.69 162.332 1260.46 162.556 1260.46 162.832C1260.46 163.108 1260.69 163.332 1260.96 163.332C1261.24 163.332 1261.46 163.108 1261.46 162.832C1261.46 162.556 1261.24 162.332 1260.96 162.332Z" fill="white" fill-opacity="0.05"/>
<path d="M525.651 564.853C525.375 564.853 525.151 565.076 525.151 565.353C525.151 565.629 525.375 565.853 525.651 565.853C525.928 565.853 526.151 565.629 526.151 565.353C526.151 565.076 525.928 564.853 525.651 564.853Z" fill="white" fill-opacity="0.15"/>
<path d="M665.766 744.014C665.489 744.014 665.266 744.238 665.266 744.514C665.266 744.79 665.489 745.014 665.766 745.014C666.042 745.014 666.266 744.79 666.266 744.514C666.266 744.238 666.042 744.014 665.766 744.014Z" fill="white" fill-opacity="0.15"/>
<path d="M987.656 128.287C987.38 128.287 987.156 128.511 987.156 128.787C987.156 129.063 987.38 129.287 987.656 129.287C987.932 129.287 988.156 129.063 988.156 128.787C988.156 128.511 987.932 128.287 987.656 128.287Z" fill="white" fill-opacity="0.1"/>
<path d="M191.219 380.833C191.462 380.703 191.554 380.4 191.424 380.156C191.294 379.912 190.991 379.821 190.747 379.951C190.504 380.081 190.412 380.384 190.542 380.627C190.672 380.871 190.975 380.963 191.219 380.833Z" fill="white" fill-opacity="0.05"/>
<path d="M320.246 632.229C320.49 632.099 320.582 631.796 320.452 631.553C320.321 631.309 320.018 631.217 319.775 631.347C319.531 631.477 319.44 631.78 319.57 632.024C319.7 632.267 320.003 632.359 320.246 632.229Z" fill="white" fill-opacity="0.25"/>
<path d="M894.293 755.327C894.017 755.327 893.793 755.551 893.793 755.827C893.793 756.103 894.017 756.327 894.293 756.327C894.569 756.327 894.793 756.103 894.793 755.827C894.793 755.551 894.569 755.327 894.293 755.327Z" fill="white" fill-opacity="0.05"/>
<path d="M329.011 37.7559C328.735 37.7559 328.511 37.9797 328.511 38.2559C328.511 38.532 328.735 38.7559 329.011 38.7559C329.287 38.7559 329.511 38.532 329.511 38.2559C329.511 37.9797 329.287 37.7559 329.011 37.7559Z" fill="white"/>
<path d="M11.8311 272.945C11.5549 272.945 11.3311 273.169 11.3311 273.445C11.3311 273.721 11.5549 273.945 11.8311 273.945C12.1072 273.945 12.3311 273.721 12.3311 273.445C12.3311 273.169 12.1072 272.945 11.8311 272.945Z" fill="white" fill-opacity="0.25"/>
<path d="M542.873 441.601C542.597 441.601 542.373 441.824 542.373 442.101C542.373 442.377 542.597 442.601 542.873 442.601C543.149 442.601 543.373 442.377 543.373 442.101C543.373 441.824 543.149 441.601 542.873 441.601Z" fill="white" fill-opacity="0.05"/>
<path d="M983.615 779.76C983.339 779.76 983.115 779.984 983.115 780.26C983.115 780.536 983.339 780.76 983.615 780.76C983.891 780.76 984.115 780.536 984.115 780.26C984.115 779.984 983.891 779.76 983.615 779.76Z" fill="white" fill-opacity="0.15"/>
<path d="M828.971 563.64C828.695 563.64 828.471 563.864 828.471 564.14C828.471 564.416 828.695 564.64 828.971 564.64C829.247 564.64 829.471 564.416 829.471 564.14C829.471 563.864 829.247 563.64 828.971 563.64Z" fill="white" fill-opacity="0.25"/>
<path d="M2.021 425.585C1.74485 425.585 1.521 425.809 1.521 426.085C1.521 426.361 1.74485 426.585 2.021 426.585C2.29714 426.585 2.521 426.361 2.521 426.085C2.521 425.809 2.29714 425.585 2.021 425.585Z" fill="white" fill-opacity="0.1"/>
<path d="M220.637 496.061C220.881 495.931 220.972 495.628 220.842 495.385C220.712 495.141 220.409 495.049 220.166 495.179C219.922 495.31 219.83 495.612 219.96 495.856C220.091 496.1 220.393 496.191 220.637 496.061Z" fill="white" fill-opacity="0.05"/>
<path d="M1204.04 86.2607C1203.77 86.2607 1203.54 86.4846 1203.54 86.7607C1203.54 87.0369 1203.77 87.2607 1204.04 87.2607C1204.32 87.2607 1204.54 87.0369 1204.54 86.7607C1204.54 86.4846 1204.32 86.2607 1204.04 86.2607Z" fill="white" fill-opacity="0.05"/>
<path d="M47.6709 127.212C47.3948 127.212 47.1709 127.436 47.1709 127.712C47.1709 127.988 47.3948 128.212 47.6709 128.212C47.947 128.212 48.1709 127.988 48.1709 127.712C48.1709 127.436 47.947 127.212 47.6709 127.212Z" fill="white" fill-opacity="0.05"/>
<path d="M573.5 608.786C573.776 608.786 574 608.562 574 608.286C574 608.01 573.776 607.786 573.5 607.786C573.224 607.786 573 608.01 573 608.286C573 608.562 573.224 608.786 573.5 608.786Z" fill="white" fill-opacity="0.25"/>
<path d="M968.377 395.94C968.101 395.94 967.877 396.164 967.877 396.44C967.877 396.717 968.101 396.94 968.377 396.94C968.653 396.94 968.877 396.717 968.877 396.44C968.877 396.164 968.653 395.94 968.377 395.94Z" fill="white" fill-opacity="0.1"/>
<path d="M774.467 493.036C774.191 493.036 773.967 493.26 773.967 493.536C773.967 493.812 774.191 494.036 774.467 494.036C774.743 494.036 774.967 493.812 774.967 493.536C774.967 493.26 774.743 493.036 774.467 493.036Z" fill="white" fill-opacity="0.15"/>
<path d="M605.642 519.986C605.366 519.986 605.142 520.21 605.142 520.486C605.142 520.762 605.366 520.986 605.642 520.986C605.918 520.986 606.142 520.762 606.142 520.486C606.142 520.21 605.918 519.986 605.642 519.986Z" fill="white" fill-opacity="0.25"/>
<path d="M1291.61 137.799C1291.34 137.799 1291.11 138.023 1291.11 138.299C1291.11 138.575 1291.34 138.799 1291.61 138.799C1291.89 138.799 1292.11 138.575 1292.11 138.299C1292.11 138.023 1291.89 137.799 1291.61 137.799Z" fill="white" fill-opacity="0.25"/>
<path d="M123.682 278.593C123.925 278.463 124.017 278.16 123.887 277.917C123.757 277.673 123.454 277.581 123.21 277.712C122.967 277.842 122.875 278.145 123.005 278.388C123.135 278.632 123.438 278.724 123.682 278.593Z" fill="white" fill-opacity="0.1"/>
<path d="M51.251 12.3223C50.9748 12.3223 50.751 12.5461 50.751 12.8223C50.751 13.0984 50.9748 13.3223 51.251 13.3223C51.5271 13.3223 51.751 13.0984 51.751 12.8223C51.751 12.5461 51.5271 12.3223 51.251 12.3223Z" fill="white" fill-opacity="0.1"/>
<path d="M1082.32 7.85449C1082.04 7.85449 1081.82 8.07835 1081.82 8.35449C1081.82 8.63063 1082.04 8.85449 1082.32 8.85449C1082.59 8.85449 1082.82 8.63063 1082.82 8.35449C1082.82 8.07835 1082.59 7.85449 1082.32 7.85449Z" fill="white" fill-opacity="0.25"/>
<path d="M864.76 406.765C864.484 406.765 864.26 406.989 864.26 407.265C864.26 407.541 864.484 407.765 864.76 407.765C865.036 407.765 865.26 407.541 865.26 407.265C865.26 406.989 865.036 406.765 864.76 406.765Z" fill="white" fill-opacity="0.25"/>
<path d="M617.002 531.237C617.278 531.237 617.502 531.013 617.502 530.737C617.502 530.461 617.278 530.237 617.002 530.237C616.726 530.237 616.502 530.461 616.502 530.737C616.502 531.013 616.726 531.237 617.002 531.237Z" fill="white" fill-opacity="0.1"/>
<path d="M1205.06 770.695C1204.78 770.695 1204.56 770.919 1204.56 771.195C1204.56 771.471 1204.78 771.695 1205.06 771.695C1205.34 771.695 1205.56 771.471 1205.56 771.195C1205.56 770.919 1205.34 770.695 1205.06 770.695Z" fill="white" fill-opacity="0.05"/>
<path d="M603.684 476.245C603.408 476.245 603.184 476.469 603.184 476.745C603.184 477.021 603.408 477.245 603.684 477.245C603.96 477.245 604.184 477.021 604.184 476.745C604.184 476.469 603.96 476.245 603.684 476.245Z" fill="white" fill-opacity="0.25"/>
<path d="M1262.52 670.299C1262.25 670.299 1262.02 670.523 1262.02 670.799C1262.02 671.075 1262.25 671.299 1262.52 671.299C1262.8 671.299 1263.02 671.075 1263.02 670.799C1263.02 670.523 1262.8 670.299 1262.52 670.299Z" fill="white" fill-opacity="0.1"/>
<path d="M281.732 481.574C281.976 481.444 282.068 481.141 281.937 480.897C281.807 480.654 281.504 480.562 281.261 480.692C281.017 480.822 280.925 481.125 281.056 481.369C281.186 481.612 281.489 481.704 281.732 481.574Z" fill="white"/>
<path d="M0.621094 465.505C0.344951 465.505 0.121094 465.729 0.121094 466.005C0.121094 466.281 0.344951 466.505 0.621094 466.505C0.897236 466.505 1.12109 466.281 1.12109 466.005C1.12109 465.729 0.897236 465.505 0.621094 465.505Z" fill="white" fill-opacity="0.1"/>
<path d="M42.4209 292.228C42.1448 292.228 41.9209 292.451 41.9209 292.728C41.9209 293.004 42.1448 293.228 42.4209 293.228C42.697 293.228 42.9209 293.004 42.9209 292.728C42.9209 292.451 42.697 292.228 42.4209 292.228Z" fill="white"/>
<path d="M1278.45 691.7C1278.17 691.7 1277.95 691.924 1277.95 692.2C1277.95 692.476 1278.17 692.7 1278.45 692.7C1278.72 692.7 1278.95 692.476 1278.95 692.2C1278.95 691.924 1278.72 691.7 1278.45 691.7Z" fill="white" fill-opacity="0.05"/>
<path d="M1150.96 325.879C1150.69 325.879 1150.46 326.103 1150.46 326.379C1150.46 326.655 1150.69 326.879 1150.96 326.879C1151.24 326.879 1151.46 326.655 1151.46 326.379C1151.46 326.103 1151.24 325.879 1150.96 325.879Z" fill="white" fill-opacity="0.05"/>
<path d="M791.469 745.05C791.193 745.05 790.969 745.274 790.969 745.55C790.969 745.826 791.193 746.05 791.469 746.05C791.745 746.05 791.969 745.826 791.969 745.55C791.969 745.274 791.745 745.05 791.469 745.05Z" fill="white" fill-opacity="0.25"/>
<path d="M1164.7 779.505C1164.43 779.505 1164.2 779.729 1164.2 780.005C1164.2 780.281 1164.43 780.505 1164.7 780.505C1164.98 780.505 1165.2 780.281 1165.2 780.005C1165.2 779.729 1164.98 779.505 1164.7 779.505Z" fill="white" fill-opacity="0.1"/>
<path d="M1328.68 494.513C1328.4 494.513 1328.18 494.737 1328.18 495.013C1328.18 495.289 1328.4 495.513 1328.68 495.513C1328.96 495.513 1329.18 495.289 1329.18 495.013C1329.18 494.737 1328.96 494.513 1328.68 494.513Z" fill="white" fill-opacity="0.15"/>
<path d="M187.171 682.564C186.895 682.564 186.671 682.788 186.671 683.064C186.671 683.341 186.895 683.564 187.171 683.564C187.448 683.564 187.671 683.341 187.671 683.064C187.671 682.788 187.448 682.564 187.171 682.564Z" fill="white" fill-opacity="0.15"/>
<path d="M251.776 586.405C252.019 586.275 252.111 585.972 251.981 585.728C251.851 585.485 251.548 585.393 251.304 585.523C251.061 585.653 250.969 585.956 251.099 586.2C251.229 586.443 251.532 586.535 251.776 586.405Z" fill="white" fill-opacity="0.1"/>
<path d="M1217.92 192.938C1217.65 192.938 1217.42 193.161 1217.42 193.438C1217.42 193.714 1217.65 193.938 1217.92 193.938C1218.2 193.938 1218.42 193.714 1218.42 193.438C1218.42 193.161 1218.2 192.938 1217.92 192.938Z" fill="white" fill-opacity="0.1"/>
<path d="M146.221 196.445C145.945 196.445 145.721 196.669 145.721 196.945C145.721 197.221 145.945 197.445 146.221 197.445C146.497 197.445 146.721 197.221 146.721 196.945C146.721 196.669 146.497 196.445 146.221 196.445Z" fill="white" fill-opacity="0.25"/>
<path d="M952.732 94.9922C952.456 94.9922 952.232 95.216 952.232 95.4922C952.232 95.7683 952.456 95.9922 952.732 95.9922C953.008 95.9922 953.232 95.7683 953.232 95.4922C953.232 95.216 953.008 94.9922 952.732 94.9922Z" fill="white"/>
<path d="M617.508 610.722C617.232 610.722 617.008 610.946 617.008 611.222C617.008 611.498 617.232 611.722 617.508 611.722C617.784 611.722 618.008 611.498 618.008 611.222C618.008 610.946 617.784 610.722 617.508 610.722Z" fill="white" fill-opacity="0.15"/>
<path d="M644.534 575.013C644.258 575.013 644.034 575.237 644.034 575.513C644.034 575.789 644.258 576.013 644.534 576.013C644.81 576.013 645.034 575.789 645.034 575.513C645.034 575.237 644.81 575.013 644.534 575.013Z" fill="white" fill-opacity="0.25"/>
<path d="M286.941 61.541C286.665 61.541 286.441 61.7649 286.441 62.041C286.441 62.3172 286.665 62.541 286.941 62.541C287.217 62.541 287.441 62.3172 287.441 62.041C287.441 61.7649 287.217 61.541 286.941 61.541Z" fill="white"/>
<path d="M990.832 228.667C990.555 228.667 990.332 228.891 990.332 229.167C990.332 229.443 990.555 229.667 990.832 229.667C991.108 229.667 991.332 229.443 991.332 229.167C991.332 228.891 991.108 228.667 990.832 228.667Z" fill="white"/>
<path d="M626.559 453.508C626.283 453.508 626.059 453.732 626.059 454.008C626.059 454.284 626.283 454.508 626.559 454.508C626.835 454.508 627.059 454.284 627.059 454.008C627.059 453.732 626.835 453.508 626.559 453.508Z" fill="white" fill-opacity="0.25"/>
<path d="M29.5513 646.389C29.2751 646.389 29.0513 646.613 29.0513 646.889C29.0513 647.165 29.2751 647.389 29.5513 647.389C29.8274 647.389 30.0513 647.165 30.0513 646.889C30.0513 646.613 29.8274 646.389 29.5513 646.389Z" fill="white" fill-opacity="0.15"/>
<path d="M587.346 634.361C587.07 634.361 586.846 634.585 586.846 634.861C586.846 635.137 587.07 635.361 587.346 635.361C587.622 635.361 587.846 635.137 587.846 634.861C587.846 634.585 587.622 634.361 587.346 634.361Z" fill="white" fill-opacity="0.05"/>
<path d="M612.769 767.978C612.492 767.978 612.269 768.201 612.269 768.478C612.269 768.754 612.492 768.978 612.769 768.978C613.045 768.978 613.269 768.754 613.269 768.478C613.269 768.201 613.045 767.978 612.769 767.978Z" fill="white" fill-opacity="0.1"/>
<path d="M436.086 560.771C435.81 560.771 435.586 560.995 435.586 561.271C435.586 561.548 435.81 561.771 436.086 561.771C436.362 561.771 436.586 561.548 436.586 561.271C436.586 560.995 436.362 560.771 436.086 560.771Z" fill="white" fill-opacity="0.15"/>
<path d="M1197.73 273.68C1197.45 273.68 1197.23 273.904 1197.23 274.18C1197.23 274.456 1197.45 274.68 1197.73 274.68C1198.01 274.68 1198.23 274.456 1198.23 274.18C1198.23 273.904 1198.01 273.68 1197.73 273.68Z" fill="white" fill-opacity="0.25"/>
<path d="M1130.51 196.08C1130.24 196.08 1130.01 196.304 1130.01 196.58C1130.01 196.856 1130.24 197.08 1130.51 197.08C1130.79 197.08 1131.01 196.856 1131.01 196.58C1131.01 196.304 1130.79 196.08 1130.51 196.08Z" fill="white" fill-opacity="0.15"/>
<path d="M787.753 647.722C787.477 647.722 787.253 647.946 787.253 648.222C787.253 648.498 787.477 648.722 787.753 648.722C788.029 648.722 788.253 648.498 788.253 648.222C788.253 647.946 788.029 647.722 787.753 647.722Z" fill="white" fill-opacity="0.25"/>
<path d="M215.828 636.58C216.071 636.45 216.163 636.147 216.033 635.903C215.903 635.66 215.6 635.568 215.356 635.698C215.113 635.828 215.021 636.131 215.151 636.375C215.281 636.618 215.584 636.71 215.828 636.58Z" fill="white"/>
<path d="M728.189 14.71C727.913 14.71 727.689 14.9338 727.689 15.21C727.689 15.4861 727.913 15.71 728.189 15.71C728.465 15.71 728.689 15.4861 728.689 15.21C728.689 14.9338 728.465 14.71 728.189 14.71Z" fill="white" fill-opacity="0.05"/>
<path d="M861.892 259.167C861.616 259.167 861.392 259.391 861.392 259.667C861.392 259.943 861.616 260.167 861.892 260.167C862.168 260.167 862.392 259.943 862.392 259.667C862.392 259.391 862.168 259.167 861.892 259.167Z" fill="white" fill-opacity="0.25"/>
<path d="M1364.17 622.091C1363.89 622.091 1363.67 622.315 1363.67 622.591C1363.67 622.867 1363.89 623.091 1364.17 623.091C1364.45 623.091 1364.67 622.867 1364.67 622.591C1364.67 622.315 1364.45 622.091 1364.17 622.091Z" fill="white" fill-opacity="0.1"/>
<path d="M714.6 10.4824C714.324 10.4824 714.1 10.7063 714.1 10.9824C714.1 11.2586 714.324 11.4824 714.6 11.4824C714.876 11.4824 715.1 11.2586 715.1 10.9824C715.1 10.7063 714.876 10.4824 714.6 10.4824Z" fill="white" fill-opacity="0.25"/>
<path d="M814.928 302.136C814.652 302.136 814.428 302.36 814.428 302.636C814.428 302.912 814.652 303.136 814.928 303.136C815.204 303.136 815.428 302.912 815.428 302.636C815.428 302.36 815.204 302.136 814.928 302.136Z" fill="white" fill-opacity="0.1"/>
<path d="M923.193 353.035C922.917 353.035 922.693 353.259 922.693 353.535C922.693 353.811 922.917 354.035 923.193 354.035C923.47 354.035 923.693 353.811 923.693 353.535C923.693 353.259 923.47 353.035 923.193 353.035Z" fill="white"/>
<path d="M193.653 486.013C193.896 485.883 193.988 485.58 193.858 485.337C193.728 485.093 193.425 485.001 193.181 485.131C192.938 485.262 192.846 485.565 192.976 485.808C193.106 486.052 193.409 486.144 193.653 486.013Z" fill="white" fill-opacity="0.1"/>
<path d="M1115.09 165.841C1114.81 165.841 1114.59 166.065 1114.59 166.341C1114.59 166.617 1114.81 166.841 1115.09 166.841C1115.37 166.841 1115.59 166.617 1115.59 166.341C1115.59 166.065 1115.37 165.841 1115.09 165.841Z" fill="white" fill-opacity="0.1"/>
<path d="M402.29 794.479C402.014 794.479 401.79 794.702 401.79 794.979C401.79 795.255 402.014 795.479 402.29 795.479C402.566 795.479 402.79 795.255 402.79 794.979C402.79 794.702 402.566 794.479 402.29 794.479Z" fill="white" fill-opacity="0.15"/>
<path d="M956.831 176.689C956.555 176.689 956.331 176.913 956.331 177.189C956.331 177.466 956.555 177.689 956.831 177.689C957.107 177.689 957.331 177.466 957.331 177.189C957.331 176.913 957.107 176.689 956.831 176.689Z" fill="white" fill-opacity="0.05"/>
<path d="M96.3079 381.741C96.5514 381.611 96.6433 381.308 96.5131 381.064C96.3829 380.821 96.08 380.729 95.8365 380.859C95.5929 380.989 95.501 381.292 95.6312 381.536C95.7614 381.779 96.0644 381.871 96.3079 381.741Z" fill="white" fill-opacity="0.25"/>
<path d="M1323.13 368.888C1322.85 368.888 1322.63 369.112 1322.63 369.388C1322.63 369.664 1322.85 369.888 1323.13 369.888C1323.41 369.888 1323.63 369.664 1323.63 369.388C1323.63 369.112 1323.41 368.888 1323.13 368.888Z" fill="white" fill-opacity="0.25"/>
<path d="M384.171 761.043C383.895 761.043 383.671 761.267 383.671 761.543C383.671 761.819 383.895 762.043 384.171 762.043C384.447 762.043 384.671 761.819 384.671 761.543C384.671 761.267 384.447 761.043 384.171 761.043Z" fill="white" fill-opacity="0.15"/>
<path d="M401.3 486.869C401.543 486.739 401.635 486.436 401.505 486.192C401.375 485.949 401.072 485.857 400.828 485.987C400.585 486.117 400.493 486.42 400.623 486.664C400.753 486.907 401.056 486.999 401.3 486.869Z" fill="white" fill-opacity="0.15"/>
<path d="M67.4712 562.9C67.195 562.9 66.9712 563.124 66.9712 563.4C66.9712 563.677 67.195 563.9 67.4712 563.9C67.7473 563.9 67.9712 563.677 67.9712 563.4C67.9712 563.124 67.7473 562.9 67.4712 562.9Z" fill="white" fill-opacity="0.1"/>
<path d="M138.251 163.644C137.975 163.644 137.751 163.867 137.751 164.144C137.751 164.42 137.975 164.644 138.251 164.644C138.527 164.644 138.751 164.42 138.751 164.144C138.751 163.867 138.527 163.644 138.251 163.644Z" fill="white"/>
<path d="M1285.02 28.8281C1284.75 28.8281 1284.52 29.052 1284.52 29.3281C1284.52 29.6043 1284.75 29.8281 1285.02 29.8281C1285.3 29.8281 1285.52 29.6043 1285.52 29.3281C1285.52 29.052 1285.3 28.8281 1285.02 28.8281Z" fill="white" fill-opacity="0.1"/>
<path d="M1260.3 147.762C1260.02 147.762 1259.8 147.986 1259.8 148.262C1259.8 148.538 1260.02 148.762 1260.3 148.762C1260.57 148.762 1260.8 148.538 1260.8 148.262C1260.8 147.986 1260.57 147.762 1260.3 147.762Z" fill="white" fill-opacity="0.1"/>
<path d="M862.844 422.879C862.568 422.879 862.344 423.103 862.344 423.379C862.344 423.655 862.568 423.879 862.844 423.879C863.12 423.879 863.344 423.655 863.344 423.379C863.344 423.103 863.12 422.879 862.844 422.879Z" fill="white" fill-opacity="0.1"/>
<path d="M84.8416 402.739C85.0851 402.609 85.177 402.306 85.0468 402.062C84.9166 401.819 84.6137 401.727 84.3701 401.857C84.1266 401.987 84.0347 402.29 84.1649 402.534C84.2951 402.777 84.5981 402.869 84.8416 402.739Z" fill="white" fill-opacity="0.05"/>
<path d="M1328.24 698.486C1327.96 698.486 1327.74 698.71 1327.74 698.986C1327.74 699.262 1327.96 699.486 1328.24 699.486C1328.52 699.486 1328.74 699.262 1328.74 698.986C1328.74 698.71 1328.52 698.486 1328.24 698.486Z" fill="white" fill-opacity="0.15"/>
<path d="M1201.39 31.1582C1201.12 31.1582 1200.89 31.3821 1200.89 31.6582C1200.89 31.9343 1201.12 32.1582 1201.39 32.1582C1201.67 32.1582 1201.89 31.9343 1201.89 31.6582C1201.89 31.3821 1201.67 31.1582 1201.39 31.1582Z" fill="white" fill-opacity="0.05"/>
<path d="M410.548 413.853C410.272 413.853 410.048 414.076 410.048 414.353C410.048 414.629 410.272 414.853 410.548 414.853C410.824 414.853 411.048 414.629 411.048 414.353C411.048 414.076 410.824 413.853 410.548 413.853Z" fill="white" fill-opacity="0.25"/>
<path d="M904.646 629.455C904.37 629.455 904.146 629.679 904.146 629.955C904.146 630.231 904.37 630.455 904.646 630.455C904.923 630.455 905.146 630.231 905.146 629.955C905.146 629.679 904.923 629.455 904.646 629.455Z" fill="white" fill-opacity="0.1"/>
<path d="M839.46 14.5977C839.184 14.5977 838.96 14.8215 838.96 15.0977C838.96 15.3738 839.184 15.5977 839.46 15.5977C839.736 15.5977 839.96 15.3738 839.96 15.0977C839.96 14.8215 839.736 14.5977 839.46 14.5977Z" fill="white" fill-opacity="0.25"/>
<path d="M1037.71 618.622C1037.43 618.622 1037.21 618.846 1037.21 619.122C1037.21 619.398 1037.43 619.622 1037.71 619.622C1037.98 619.622 1038.21 619.398 1038.21 619.122C1038.21 618.846 1037.98 618.622 1037.71 618.622Z" fill="white" fill-opacity="0.1"/>
<path d="M837.872 692.19C837.595 692.19 837.372 692.414 837.372 692.69C837.372 692.967 837.595 693.19 837.872 693.19C838.148 693.19 838.372 692.967 838.372 692.69C838.372 692.414 838.148 692.19 837.872 692.19Z" fill="white" fill-opacity="0.05"/>
<path d="M847.844 502.021C847.568 502.021 847.344 502.244 847.344 502.521C847.344 502.797 847.568 503.021 847.844 503.021C848.12 503.021 848.344 502.797 848.344 502.521C848.344 502.244 848.12 502.021 847.844 502.021Z" fill="white" fill-opacity="0.15"/>
<path d="M1226.17 136.644C1225.89 136.644 1225.67 136.867 1225.67 137.144C1225.67 137.42 1225.89 137.644 1226.17 137.644C1226.44 137.644 1226.67 137.42 1226.67 137.144C1226.67 136.867 1226.44 136.644 1226.17 136.644Z" fill="white" fill-opacity="0.25"/>
<path d="M279.691 54.4883C279.415 54.4883 279.191 54.7121 279.191 54.9883C279.191 55.2644 279.415 55.4883 279.691 55.4883C279.967 55.4883 280.191 55.2644 280.191 54.9883C280.191 54.7121 279.967 54.4883 279.691 54.4883Z" fill="white" fill-opacity="0.25"/>
<path d="M733.936 757.364C733.659 757.364 733.436 757.588 733.436 757.864C733.436 758.14 733.659 758.364 733.936 758.364C734.212 758.364 734.436 758.14 734.436 757.864C734.436 757.588 734.212 757.364 733.936 757.364Z" fill="white" fill-opacity="0.25"/>
<path d="M359.741 527.401C359.984 527.271 360.076 526.968 359.946 526.724C359.816 526.481 359.513 526.389 359.269 526.519C359.026 526.649 358.934 526.952 359.064 527.196C359.194 527.439 359.497 527.531 359.741 527.401Z" fill="white" fill-opacity="0.25"/>
<path d="M238.691 132.348C238.415 132.348 238.191 132.572 238.191 132.848C238.191 133.124 238.415 133.348 238.691 133.348C238.967 133.348 239.191 133.124 239.191 132.848C239.191 132.572 238.967 132.348 238.691 132.348Z" fill="white" fill-opacity="0.1"/>
<path d="M1132.14 199.695C1131.86 199.695 1131.64 199.919 1131.64 200.195C1131.64 200.471 1131.86 200.695 1132.14 200.695C1132.42 200.695 1132.64 200.471 1132.64 200.195C1132.64 199.919 1132.42 199.695 1132.14 199.695Z" fill="white" fill-opacity="0.05"/>
<path d="M786.725 296.695C786.449 296.695 786.225 296.919 786.225 297.195C786.225 297.471 786.449 297.695 786.725 297.695C787.001 297.695 787.225 297.471 787.225 297.195C787.225 296.919 787.001 296.695 786.725 296.695Z" fill="white" fill-opacity="0.05"/>
<path d="M1381.56 452.863C1381.29 452.863 1381.06 453.087 1381.06 453.363C1381.06 453.639 1381.29 453.863 1381.56 453.863C1381.84 453.863 1382.06 453.639 1382.06 453.363C1382.06 453.087 1381.84 452.863 1381.56 452.863Z" fill="white" fill-opacity="0.15"/>
<path d="M813.968 446.7C813.692 446.7 813.468 446.924 813.468 447.2C813.468 447.476 813.692 447.7 813.968 447.7C814.244 447.7 814.468 447.476 814.468 447.2C814.468 446.924 814.244 446.7 813.968 446.7Z" fill="white" fill-opacity="0.1"/>
<path d="M1052.52 770.692C1052.24 770.692 1052.02 770.916 1052.02 771.192C1052.02 771.469 1052.24 771.692 1052.52 771.692C1052.79 771.692 1053.02 771.469 1053.02 771.192C1053.02 770.916 1052.79 770.692 1052.52 770.692Z" fill="white" fill-opacity="0.05"/>
<path d="M1075.62 535.299C1075.34 535.299 1075.12 535.523 1075.12 535.799C1075.12 536.075 1075.34 536.299 1075.62 536.299C1075.9 536.299 1076.12 536.075 1076.12 535.799C1076.12 535.523 1075.9 535.299 1075.62 535.299Z" fill="white" fill-opacity="0.25"/>
<path d="M1239.38 444.445C1239.11 444.445 1238.88 444.669 1238.88 444.945C1238.88 445.221 1239.11 445.445 1239.38 445.445C1239.66 445.445 1239.88 445.221 1239.88 444.945C1239.88 444.669 1239.66 444.445 1239.38 444.445Z" fill="white" fill-opacity="0.25"/>
<path d="M936.876 347.88C936.6 347.88 936.376 348.104 936.376 348.38C936.376 348.656 936.6 348.88 936.876 348.88C937.152 348.88 937.376 348.656 937.376 348.38C937.376 348.104 937.152 347.88 936.876 347.88Z" fill="white" fill-opacity="0.05"/>
<path d="M330.571 55.3662C330.295 55.3662 330.071 55.5901 330.071 55.8662C330.071 56.1424 330.295 56.3662 330.571 56.3662C330.847 56.3662 331.071 56.1424 331.071 55.8662C331.071 55.5901 330.847 55.3662 330.571 55.3662Z" fill="white" fill-opacity="0.05"/>
<path d="M930.274 702.811C929.998 702.811 929.774 703.034 929.774 703.311C929.774 703.587 929.998 703.811 930.274 703.811C930.551 703.811 930.774 703.587 930.774 703.311C930.774 703.034 930.551 702.811 930.274 702.811Z" fill="white" fill-opacity="0.05"/>
<path d="M847.576 431.575C847.3 431.575 847.076 431.799 847.076 432.075C847.076 432.351 847.3 432.575 847.576 432.575C847.852 432.575 848.076 432.351 848.076 432.075C848.076 431.799 847.852 431.575 847.576 431.575Z" fill="white" fill-opacity="0.15"/>
<path d="M303.158 278.17C303.402 278.039 303.494 277.736 303.364 277.493C303.234 277.249 302.931 277.158 302.687 277.288C302.444 277.418 302.352 277.721 302.482 277.964C302.612 278.208 302.915 278.3 303.158 278.17Z" fill="white" fill-opacity="0.05"/>
<path d="M399.124 695.417C398.848 695.417 398.624 695.641 398.624 695.917C398.624 696.193 398.848 696.417 399.124 696.417C399.4 696.417 399.624 696.193 399.624 695.917C399.624 695.641 399.4 695.417 399.124 695.417Z" fill="white" fill-opacity="0.15"/>
<path d="M245.801 483.277C246.045 483.147 246.136 482.844 246.006 482.6C245.876 482.357 245.573 482.265 245.33 482.395C245.086 482.525 244.994 482.828 245.124 483.072C245.255 483.315 245.558 483.407 245.801 483.277Z" fill="white" fill-opacity="0.1"/>
<path d="M800.264 700.627C799.988 700.627 799.764 700.851 799.764 701.127C799.764 701.403 799.988 701.627 800.264 701.627C800.54 701.627 800.764 701.403 800.764 701.127C800.764 700.851 800.54 700.627 800.264 700.627Z" fill="white" fill-opacity="0.05"/>
<path d="M763.892 562.26C763.616 562.26 763.392 562.484 763.392 562.76C763.392 563.036 763.616 563.26 763.892 563.26C764.168 563.26 764.392 563.036 764.392 562.76C764.392 562.484 764.168 562.26 763.892 562.26Z" fill="white" fill-opacity="0.05"/>
<path d="M1157.56 97.9375C1157.29 97.9375 1157.06 98.1614 1157.06 98.4375C1157.06 98.7136 1157.29 98.9375 1157.56 98.9375C1157.84 98.9375 1158.06 98.7136 1158.06 98.4375C1158.06 98.1614 1157.84 97.9375 1157.56 97.9375Z" fill="white" fill-opacity="0.15"/>
<path d="M820.836 790.092C820.56 790.092 820.336 790.316 820.336 790.592C820.336 790.868 820.56 791.092 820.836 791.092C821.112 791.092 821.336 790.868 821.336 790.592C821.336 790.316 821.112 790.092 820.836 790.092Z" fill="white" fill-opacity="0.15"/>
<path d="M657.397 694.9C657.121 694.9 656.897 695.124 656.897 695.4C656.897 695.677 657.121 695.9 657.397 695.9C657.673 695.9 657.897 695.677 657.897 695.4C657.897 695.124 657.673 694.9 657.397 694.9Z" fill="white" fill-opacity="0.05"/>
<path d="M300.03 311.324C300.274 311.194 300.365 310.891 300.235 310.647C300.105 310.404 299.802 310.312 299.559 310.442C299.315 310.572 299.223 310.875 299.353 311.119C299.484 311.362 299.787 311.454 300.03 311.324Z" fill="white" fill-opacity="0.05"/>
<path d="M818.247 349.438C817.971 349.438 817.747 349.662 817.747 349.938C817.747 350.215 817.971 350.438 818.247 350.438C818.523 350.438 818.747 350.215 818.747 349.938C818.747 349.662 818.523 349.438 818.247 349.438Z" fill="white"/>
<path d="M460.909 668.721C460.633 668.721 460.409 668.945 460.409 669.221C460.409 669.497 460.633 669.721 460.909 669.721C461.185 669.721 461.409 669.497 461.409 669.221C461.409 668.945 461.185 668.721 460.909 668.721Z" fill="white" fill-opacity="0.05"/>
<path d="M620.689 790.651C620.413 790.651 620.189 790.875 620.189 791.151C620.189 791.428 620.413 791.651 620.689 791.651C620.966 791.651 621.189 791.428 621.189 791.151C621.189 790.875 620.966 790.651 620.689 790.651Z" fill="white" fill-opacity="0.25"/>
<path d="M618.546 642.496C618.27 642.496 618.046 642.72 618.046 642.996C618.046 643.272 618.27 643.496 618.546 643.496C618.822 643.496 619.046 643.272 619.046 642.996C619.046 642.72 618.822 642.496 618.546 642.496Z" fill="white" fill-opacity="0.1"/>
<path d="M1026.75 734.352C1026.47 734.352 1026.25 734.575 1026.25 734.852C1026.25 735.128 1026.47 735.352 1026.75 735.352C1027.02 735.352 1027.25 735.128 1027.25 734.852C1027.25 734.575 1027.02 734.352 1026.75 734.352Z" fill="white" fill-opacity="0.05"/>
<path d="M678.893 484.431C678.617 484.431 678.393 484.655 678.393 484.931C678.393 485.207 678.617 485.431 678.893 485.431C679.169 485.431 679.393 485.207 679.393 484.931C679.393 484.655 679.169 484.431 678.893 484.431Z" fill="white" fill-opacity="0.05"/>
<path d="M209.658 568.282C209.901 568.152 209.993 567.849 209.863 567.605C209.733 567.362 209.43 567.27 209.186 567.4C208.943 567.53 208.851 567.833 208.981 568.077C209.111 568.32 209.414 568.412 209.658 568.282Z" fill="white" fill-opacity="0.1"/>
<path d="M385.841 716.727C385.565 716.727 385.341 716.95 385.341 717.227C385.341 717.503 385.565 717.727 385.841 717.727C386.117 717.727 386.341 717.503 386.341 717.227C386.341 716.95 386.117 716.727 385.841 716.727Z" fill="white" fill-opacity="0.25"/>
<path d="M751.92 707.139C751.644 707.139 751.42 707.363 751.42 707.639C751.42 707.915 751.644 708.139 751.92 708.139C752.196 708.139 752.42 707.915 752.42 707.639C752.42 707.363 752.196 707.139 751.92 707.139Z" fill="white" fill-opacity="0.15"/>
<path d="M535.565 687.146C535.289 687.146 535.065 687.37 535.065 687.646C535.065 687.923 535.289 688.146 535.565 688.146C535.841 688.146 536.065 687.923 536.065 687.646C536.065 687.37 535.841 687.146 535.565 687.146Z" fill="white" fill-opacity="0.25"/>
<path d="M1334.83 505.521C1334.55 505.521 1334.33 505.744 1334.33 506.021C1334.33 506.297 1334.55 506.521 1334.83 506.521C1335.11 506.521 1335.33 506.297 1335.33 506.021C1335.33 505.744 1335.11 505.521 1334.83 505.521Z" fill="white" fill-opacity="0.05"/>
<path d="M911.276 616.25C911 616.25 910.776 616.474 910.776 616.75C910.776 617.026 911 617.25 911.276 617.25C911.553 617.25 911.776 617.026 911.776 616.75C911.776 616.474 911.553 616.25 911.276 616.25Z" fill="white" fill-opacity="0.1"/>
<path d="M243.411 710.494C243.135 710.494 242.911 710.718 242.911 710.994C242.911 711.27 243.135 711.494 243.411 711.494C243.687 711.494 243.911 711.27 243.911 710.994C243.911 710.718 243.687 710.494 243.411 710.494Z" fill="white" fill-opacity="0.25"/>
<path d="M852.508 403.334C852.232 403.334 852.008 403.558 852.008 403.834C852.008 404.11 852.232 404.334 852.508 404.334C852.784 404.334 853.008 404.11 853.008 403.834C853.008 403.558 852.784 403.334 852.508 403.334Z" fill="white" fill-opacity="0.1"/>
<path d="M1310.13 290.006C1309.85 290.006 1309.63 290.23 1309.63 290.506C1309.63 290.782 1309.85 291.006 1310.13 291.006C1310.41 291.006 1310.63 290.782 1310.63 290.506C1310.63 290.23 1310.41 290.006 1310.13 290.006Z" fill="white" fill-opacity="0.25"/>
<path d="M649.95 638.015C649.674 638.015 649.45 638.239 649.45 638.515C649.45 638.791 649.674 639.015 649.95 639.015C650.226 639.015 650.45 638.791 650.45 638.515C650.45 638.239 650.226 638.015 649.95 638.015Z" fill="white" fill-opacity="0.25"/>
<path d="M354.291 796.047C354.015 796.047 353.791 796.271 353.791 796.547C353.791 796.823 354.015 797.047 354.291 797.047C354.567 797.047 354.791 796.823 354.791 796.547C354.791 796.271 354.567 796.047 354.291 796.047Z" fill="white"/>
<path d="M538.006 449.563C537.73 449.563 537.506 449.787 537.506 450.063C537.506 450.34 537.73 450.563 538.006 450.563C538.282 450.563 538.506 450.34 538.506 450.063C538.506 449.787 538.282 449.563 538.006 449.563Z" fill="white" fill-opacity="0.05"/>
<path d="M874.701 622.642C874.425 622.642 874.201 622.865 874.201 623.142C874.201 623.418 874.425 623.642 874.701 623.642C874.977 623.642 875.201 623.418 875.201 623.142C875.201 622.865 874.977 622.642 874.701 622.642Z" fill="white" fill-opacity="0.1"/>
<path d="M442.68 606.424C442.923 606.293 443.015 605.99 442.885 605.747C442.755 605.503 442.452 605.411 442.209 605.542C441.965 605.672 441.873 605.975 442.003 606.218C442.133 606.462 442.436 606.554 442.68 606.424Z" fill="white" fill-opacity="0.1"/>
<path d="M816.914 785.728C816.637 785.728 816.414 785.951 816.414 786.228C816.414 786.504 816.637 786.728 816.914 786.728C817.19 786.728 817.414 786.504 817.414 786.228C817.414 785.951 817.19 785.728 816.914 785.728Z" fill="white" fill-opacity="0.25"/>
<path d="M1114.51 445.414C1114.23 445.414 1114.01 445.638 1114.01 445.914C1114.01 446.19 1114.23 446.414 1114.51 446.414C1114.79 446.414 1115.01 446.19 1115.01 445.914C1115.01 445.638 1114.79 445.414 1114.51 445.414Z" fill="white" fill-opacity="0.15"/>
<path d="M860.962 551.77C860.686 551.77 860.462 551.993 860.462 552.27C860.462 552.546 860.686 552.77 860.962 552.77C861.238 552.77 861.462 552.546 861.462 552.27C861.462 551.993 861.238 551.77 860.962 551.77Z" fill="white" fill-opacity="0.25"/>
<path d="M1221.64 721.987C1221.37 721.987 1221.14 722.211 1221.14 722.487C1221.14 722.763 1221.37 722.987 1221.64 722.987C1221.92 722.987 1222.14 722.763 1222.14 722.487C1222.14 722.211 1221.92 721.987 1221.64 721.987Z" fill="white" fill-opacity="0.05"/>
<path d="M68.561 332.57C68.2849 332.57 68.061 332.794 68.061 333.07C68.061 333.346 68.2849 333.57 68.561 333.57C68.8372 333.57 69.061 333.346 69.061 333.07C69.061 332.794 68.8372 332.57 68.561 332.57Z" fill="white" fill-opacity="0.05"/>
<path d="M146.761 105.15C146.485 105.15 146.261 105.374 146.261 105.65C146.261 105.927 146.485 106.15 146.761 106.15C147.037 106.15 147.261 105.927 147.261 105.65C147.261 105.374 147.037 105.15 146.761 105.15Z" fill="white" fill-opacity="0.25"/>
<path d="M1107.03 363.56C1106.75 363.56 1106.53 363.783 1106.53 364.06C1106.53 364.336 1106.75 364.56 1107.03 364.56C1107.31 364.56 1107.53 364.336 1107.53 364.06C1107.53 363.783 1107.31 363.56 1107.03 363.56Z" fill="white" fill-opacity="0.25"/>
<path d="M676.012 481C675.736 481 675.512 481.224 675.512 481.5C675.512 481.776 675.736 482 676.012 482C676.288 482 676.512 481.776 676.512 481.5C676.512 481.224 676.288 481 676.012 481Z" fill="white" fill-opacity="0.15"/>
<path d="M398.919 546.049C399.162 545.919 399.254 545.616 399.124 545.373C398.994 545.129 398.691 545.037 398.447 545.168C398.204 545.298 398.112 545.601 398.242 545.844C398.372 546.088 398.675 546.18 398.919 546.049Z" fill="white" fill-opacity="0.1"/>
<path d="M1115.41 321.832C1115.13 321.832 1114.91 322.056 1114.91 322.332C1114.91 322.608 1115.13 322.832 1115.41 322.832C1115.69 322.832 1115.91 322.608 1115.91 322.332C1115.91 322.056 1115.69 321.832 1115.41 321.832Z" fill="white" fill-opacity="0.1"/>
<path d="M326.064 598.992C326.307 598.862 326.399 598.559 326.269 598.315C326.139 598.072 325.836 597.98 325.592 598.11C325.349 598.24 325.257 598.543 325.387 598.787C325.517 599.03 325.82 599.122 326.064 598.992Z" fill="white" fill-opacity="0.25"/>
<path d="M1010.71 277.876C1010.44 277.876 1010.21 278.1 1010.21 278.376C1010.21 278.652 1010.44 278.876 1010.71 278.876C1010.99 278.876 1011.21 278.652 1011.21 278.376C1011.21 278.1 1010.99 277.876 1010.71 277.876Z" fill="white" fill-opacity="0.15"/>
<path d="M1342.51 663.672C1342.23 663.672 1342.01 663.896 1342.01 664.172C1342.01 664.448 1342.23 664.672 1342.51 664.672C1342.79 664.672 1343.01 664.448 1343.01 664.172C1343.01 663.896 1342.79 663.672 1342.51 663.672Z" fill="white" fill-opacity="0.05"/>
<path d="M1017.7 653.458C1017.42 653.458 1017.2 653.682 1017.2 653.958C1017.2 654.234 1017.42 654.458 1017.7 654.458C1017.98 654.458 1018.2 654.234 1018.2 653.958C1018.2 653.682 1017.98 653.458 1017.7 653.458Z" fill="white"/>
<path d="M636.689 506.415C636.413 506.415 636.189 506.639 636.189 506.915C636.189 507.191 636.413 507.415 636.689 507.415C636.965 507.415 637.189 507.191 637.189 506.915C637.189 506.639 636.965 506.415 636.689 506.415Z" fill="white" fill-opacity="0.15"/>
<path d="M910.809 563.111C910.533 563.111 910.309 563.335 910.309 563.611C910.309 563.887 910.533 564.111 910.809 564.111C911.085 564.111 911.309 563.887 911.309 563.611C911.309 563.335 911.085 563.111 910.809 563.111Z" fill="white" fill-opacity="0.25"/>
<path d="M1330.85 733.514L1330.42 732.438L1329.35 732.014L1330.42 731.589L1330.85 730.514L1331.27 731.589L1332.35 732.014L1331.27 732.438L1330.85 733.514Z" fill="white" fill-opacity="0.25"/>
<path d="M953.754 438.345L953.33 437.269L952.254 436.845L953.33 436.421L953.754 435.345L954.178 436.421L955.254 436.845L954.178 437.269L953.754 438.345Z" fill="white" fill-opacity="0.15"/>
<path d="M1358.05 644.149L1357.62 643.073L1356.55 642.649L1357.62 642.225L1358.05 641.149L1358.47 642.225L1359.55 642.649L1358.47 643.073L1358.05 644.149Z" fill="white" fill-opacity="0.1"/>
<path d="M1063.38 370.861L1062.96 369.786L1061.88 369.361L1062.96 368.937L1063.38 367.861L1063.81 368.937L1064.88 369.361L1063.81 369.786L1063.38 370.861Z" fill="white" fill-opacity="0.25"/>
<path d="M1019.79 483.552L1019.36 482.476L1018.29 482.052L1019.36 481.627L1019.79 480.552L1020.21 481.627L1021.29 482.052L1020.21 482.476L1019.79 483.552Z" fill="white" fill-opacity="0.15"/>
<path d="M400.977 711.909L400.553 710.833L399.477 710.409L400.553 709.985L400.977 708.909L401.402 709.985L402.477 710.409L401.402 710.833L400.977 711.909Z" fill="white" fill-opacity="0.15"/>
<path d="M154.931 76.1875L154.511 75.1125L153.431 74.6875L154.511 74.2635L154.931 73.1875L155.361 74.2635L156.431 74.6875L155.361 75.1125L154.931 76.1875Z" fill="white" fill-opacity="0.05"/>
<path d="M563.334 675.471L562.91 674.396L561.834 673.971L562.91 673.547L563.334 672.471L563.758 673.547L564.834 673.971L563.758 674.396L563.334 675.471Z" fill="white" fill-opacity="0.1"/>
<path d="M127.581 751.192L127.151 750.117L126.081 749.692L127.151 749.268L127.581 748.192L128.001 749.268L129.081 749.692L128.001 750.117L127.581 751.192Z" fill="white" fill-opacity="0.25"/>
<path d="M726.607 567.105L726.183 566.03L725.107 565.605L726.183 565.181L726.607 564.105L727.032 565.181L728.107 565.605L727.032 566.03L726.607 567.105Z" fill="white" fill-opacity="0.1"/>
<path d="M49.8711 74.1279L49.451 73.0519L48.3711 72.6279L49.451 72.204L49.8711 71.1279L50.3011 72.204L51.3711 72.6279L50.3011 73.0519L49.8711 74.1279Z" fill="white" fill-opacity="0.1"/>
<path d="M999.873 580.101L999.449 579.026L998.373 578.601L999.449 578.177L999.873 577.101L1000.3 578.177L1001.37 578.601L1000.3 579.026L999.873 580.101Z" fill="white" fill-opacity="0.25"/>
<path d="M544.176 56.0498L543.751 54.9749L542.676 54.5498L543.751 54.1259L544.176 53.0498L544.6 54.1259L545.676 54.5498L544.6 54.9749L544.176 56.0498Z" fill="white" fill-opacity="0.15"/>
<path d="M1194.64 400.88L1194.21 399.804L1193.14 399.38L1194.21 398.955L1194.64 397.88L1195.06 398.955L1196.14 399.38L1195.06 399.804L1194.64 400.88Z" fill="white" fill-opacity="0.25"/>
<path d="M89.4111 560.146L88.9811 559.07L87.9111 558.646L88.9811 558.221L89.4111 557.146L89.8311 558.221L90.9111 558.646L89.8311 559.07L89.4111 560.146Z" fill="white" fill-opacity="0.25"/>
<path d="M481.031 399.246L480.607 398.17L479.531 397.746L480.607 397.321L481.031 396.246L481.455 397.321L482.531 397.746L481.455 398.17L481.031 399.246Z" fill="white" fill-opacity="0.1"/>
<path d="M480.281 733.739L479.857 732.663L478.781 732.239L479.857 731.815L480.281 730.739L480.705 731.815L481.781 732.239L480.705 732.663L480.281 733.739Z" fill="white" fill-opacity="0.05"/>
<path d="M1152.05 443.872L1151.62 442.796L1150.55 442.372L1151.62 441.948L1152.05 440.872L1152.47 441.948L1153.55 442.372L1152.47 442.796L1152.05 443.872Z" fill="white" fill-opacity="0.05"/>
<path d="M36.271 605.763L35.8409 604.687L34.771 604.263L35.8409 603.839L36.271 602.763L36.6909 603.839L37.771 604.263L36.6909 604.687L36.271 605.763Z" fill="white" fill-opacity="0.25"/>
<path d="M1001.33 358.941L1000.91 357.865L999.832 357.441L1000.91 357.017L1001.33 355.941L1001.76 357.017L1002.83 357.441L1001.76 357.865L1001.33 358.941Z" fill="white" fill-opacity="0.15"/>
<path d="M43.4609 216.493L43.031 215.418L41.9609 214.993L43.031 214.569L43.4609 213.493L43.881 214.569L44.9609 214.993L43.881 215.418L43.4609 216.493Z" fill="white" fill-opacity="0.1"/>
<path d="M63.1108 357.2L62.6809 356.125L61.6108 355.7L62.6809 355.276L63.1108 354.2L63.5309 355.276L64.6108 355.7L63.5309 356.125L63.1108 357.2Z" fill="white" fill-opacity="0.05"/>
<path d="M305.021 58.3691L304.601 57.2932L303.521 56.8691L304.601 56.4451L305.021 55.3691L305.451 56.4451L306.521 56.8691L305.451 57.2932L305.021 58.3691Z" fill="white" fill-opacity="0.25"/>
<path d="M909.756 746.044C908.927 746.044 908.256 746.716 908.256 747.544C908.256 748.372 908.927 749.044 909.756 749.044C910.584 749.044 911.256 748.372 911.256 747.544C911.256 746.716 910.584 746.044 909.756 746.044Z" fill="white" fill-opacity="0.1"/>
<path d="M500.776 496.224C499.948 496.224 499.276 496.895 499.276 497.724C499.276 498.552 499.948 499.224 500.776 499.224C501.605 499.224 502.276 498.552 502.276 497.724C502.276 496.895 501.605 496.224 500.776 496.224Z" fill="white" fill-opacity="0.15"/>
<path d="M742.131 730.774C741.302 730.774 740.631 731.446 740.631 732.274C740.631 733.103 741.302 733.774 742.131 733.774C742.959 733.774 743.631 733.103 743.631 732.274C743.631 731.446 742.959 730.774 742.131 730.774Z" fill="white" fill-opacity="0.15"/>
<path d="M194.211 21.9209C193.383 21.9209 192.711 22.5925 192.711 23.4209C192.711 24.2493 193.383 24.9209 194.211 24.9209C195.039 24.9209 195.711 24.2493 195.711 23.4209C195.711 22.5925 195.039 21.9209 194.211 21.9209Z" fill="white" fill-opacity="0.25"/>
<path d="M403.644 607.027C404.375 606.637 404.651 605.728 404.26 604.997C403.87 604.267 402.961 603.991 402.23 604.382C401.499 604.772 401.224 605.681 401.614 606.412C402.005 607.142 402.914 607.418 403.644 607.027Z" fill="white" fill-opacity="0.15"/>
<path d="M1358.23 792.081C1357.4 792.081 1356.73 792.753 1356.73 793.581C1356.73 794.409 1357.4 795.081 1358.23 795.081C1359.06 795.081 1359.73 794.409 1359.73 793.581C1359.73 792.753 1359.06 792.081 1358.23 792.081Z" fill="white" fill-opacity="0.25"/>
<path d="M1316.62 655.522C1315.79 655.522 1315.12 656.194 1315.12 657.022C1315.12 657.851 1315.79 658.522 1316.62 658.522C1317.45 658.522 1318.12 657.851 1318.12 657.022C1318.12 656.194 1317.45 655.522 1316.62 655.522Z" fill="white" fill-opacity="0.25"/>
<path d="M620.719 25.8477C619.891 25.8477 619.219 26.5192 619.219 27.3477C619.219 28.1761 619.891 28.8477 620.719 28.8477C621.548 28.8477 622.219 28.1761 622.219 27.3477C622.219 26.5192 621.548 25.8477 620.719 25.8477Z" fill="white" fill-opacity="0.25"/>
<path d="M914.419 624.397C913.591 624.397 912.919 625.069 912.919 625.897C912.919 626.726 913.591 627.397 914.419 627.397C915.247 627.397 915.919 626.726 915.919 625.897C915.919 625.069 915.247 624.397 914.419 624.397Z" fill="white" fill-opacity="0.05"/>
<path d="M678.281 584.067C679.11 584.067 679.781 583.396 679.781 582.567C679.781 581.739 679.11 581.067 678.281 581.067C677.453 581.067 676.781 581.739 676.781 582.567C676.781 583.396 677.453 584.067 678.281 584.067Z" fill="white" fill-opacity="0.05"/>
<path d="M444.346 516.826C443.518 516.826 442.846 517.498 442.846 518.326C442.846 519.155 443.518 519.826 444.346 519.826C445.175 519.826 445.846 519.155 445.846 518.326C445.846 517.498 445.175 516.826 444.346 516.826Z" fill="white" fill-opacity="0.15"/>
<path d="M204.379 312.078C205.109 311.688 205.385 310.779 204.994 310.048C204.604 309.318 203.695 309.042 202.964 309.432C202.234 309.823 201.958 310.732 202.349 311.462C202.739 312.193 203.648 312.469 204.379 312.078Z" fill="white" fill-opacity="0.15"/>
<path d="M810.373 733.577C809.545 733.577 808.873 734.249 808.873 735.077C808.873 735.906 809.545 736.577 810.373 736.577C811.201 736.577 811.873 735.906 811.873 735.077C811.873 734.249 811.201 733.577 810.373 733.577Z" fill="white" fill-opacity="0.05"/>
<path d="M784.981 55.1641C784.153 55.1641 783.481 55.8356 783.481 56.6641C783.481 57.4925 784.153 58.1641 784.981 58.1641C785.809 58.1641 786.481 57.4925 786.481 56.6641C786.481 55.8356 785.809 55.1641 784.981 55.1641Z" fill="white" fill-opacity="0.25"/>
<path d="M968.342 131.386C967.513 131.386 966.842 132.057 966.842 132.886C966.842 133.714 967.513 134.386 968.342 134.386C969.17 134.386 969.842 133.714 969.842 132.886C969.842 132.057 969.17 131.386 968.342 131.386Z" fill="white" fill-opacity="0.15"/>
<path d="M496.291 630.137C495.463 630.137 494.791 630.808 494.791 631.637C494.791 632.465 495.463 633.137 496.291 633.137C497.119 633.137 497.791 632.465 497.791 631.637C497.791 630.808 497.119 630.137 496.291 630.137Z" fill="white" fill-opacity="0.25"/>
<path d="M1314.42 99.1914L1313.55 97.6914L1315.28 97.6914L1314.42 99.1914Z" fill="white" fill-opacity="0.25"/>
<path d="M597.491 502.662L598.357 504.162H596.625L597.491 502.662Z" fill="white"/>
<path d="M377.681 781.063L376.821 779.563L378.551 779.562L377.681 781.063Z" fill="white" fill-opacity="0.05"/>
<path d="M199.571 790.718L198.701 789.218L200.431 789.218L199.571 790.718Z" fill="white" fill-opacity="0.25"/>
<path d="M1085.87 763.231L1085 761.731L1086.73 761.731L1085.87 763.231Z" fill="white" fill-opacity="0.25"/>
<path d="M627.471 752.018L626.605 750.518L628.337 750.518L627.471 752.018Z" fill="white" fill-opacity="0.1"/>
<path d="M184.301 718.814L183.431 717.314L185.161 717.314L184.301 718.814Z" fill="white" fill-opacity="0.25"/>
<path d="M862.062 732.166L861.196 730.666L862.928 730.666L862.062 732.166Z" fill="white" fill-opacity="0.15"/>
<path d="M916.872 241.506L916.006 240.006L917.738 240.006L916.872 241.506Z" fill="white" fill-opacity="0.25"/>
<path d="M1280.22 79.0449L1279.36 77.5449L1281.09 77.5449L1280.22 79.0449Z" fill="white" fill-opacity="0.15"/>
<path d="M1114.06 422.689L1113.19 421.189L1114.92 421.189L1114.06 422.689Z" fill="white" fill-opacity="0.15"/>
<path d="M725.071 572.646L724.205 571.146L725.937 571.146L725.071 572.646Z" fill="white" fill-opacity="0.25"/>
<path d="M336.235 606.118L337.701 607.036L336.175 607.851L336.235 606.118Z" fill="white"/>
<path d="M187.218 592.002L188.689 592.916L187.161 593.733L187.218 592.002Z" fill="white" fill-opacity="0.05"/>
<path d="M920.924 796.174L920.058 794.674L921.79 794.674L920.924 796.174Z" fill="white" fill-opacity="0.25"/>
<path d="M632.485 795.1L631.619 793.6L633.351 793.6L632.485 795.1Z" fill="white" fill-opacity="0.15"/>
<path d="M621.273 39.1436L620.407 37.6436L622.139 37.6436L621.273 39.1436Z" fill="white" fill-opacity="0.05"/>
<path d="M172.041 705.621L171.171 704.121L172.911 704.121L172.041 705.621Z" fill="white" fill-opacity="0.1"/>
<path d="M1060.47 493.806L1059.6 492.306L1061.33 492.306L1060.47 493.806Z" fill="white" fill-opacity="0.1"/>
<path d="M828.106 556.122L827.24 554.622L828.972 554.622L828.106 556.122Z" fill="white" fill-opacity="0.1"/>
<path d="M159.097 502.675L160.571 503.587L159.044 504.404L159.097 502.675Z" fill="white" fill-opacity="0.15"/>
<path d="M1039.72 636.672L1038.86 635.172L1040.59 635.172L1039.72 636.672Z" fill="white" fill-opacity="0.1"/>
<path d="M864.345 546.601L863.479 545.101L865.211 545.101L864.345 546.601Z" fill="white" fill-opacity="0.15"/>
<path d="M1150.63 287.611L1149.76 286.111L1151.49 286.111L1150.63 287.611Z" fill="white" fill-opacity="0.1"/>
<path d="M773.502 705.792L772.636 704.292L774.368 704.292L773.502 705.792Z" fill="white"/>
<path d="M785.251 662.581L784.385 661.081L786.117 661.081L785.251 662.581Z" fill="white" fill-opacity="0.25"/>
<path d="M977.057 174.88L976.191 173.38L977.923 173.38L977.057 174.88Z" fill="white" fill-opacity="0.1"/>
<path d="M1028.61 101.257L1027.74 99.7568L1029.48 99.7568L1028.61 101.257Z" fill="white" fill-opacity="0.15"/>
<path d="M1087.22 290.292L1086.35 288.792L1088.08 288.792L1087.22 290.292Z" fill="white" fill-opacity="0.25"/>
<path d="M1316.88 608.257L1316.01 606.757L1317.74 606.757L1316.88 608.257Z" fill="white" fill-opacity="0.1"/>
<path d="M638.134 53.4688L637.268 51.9688L639 51.9688L638.134 53.4688Z" fill="white" fill-opacity="0.05"/>
<g filter="url(#filter0_f_1562_1382)">
<path d="M751.814 66.9065C751.814 67.9595 757.433 68.8131 764.365 68.8131C771.297 68.8131 776.917 67.9595 776.917 66.9065C776.917 65.8536 771.297 65 764.365 65C757.433 65 751.814 65.8536 751.814 66.9065Z" fill="white"/>
</g>
<g filter="url(#filter1_f_1562_1382)">
<path d="M1124.55 404.458C1125.6 404.458 1126.46 398.839 1126.46 391.907C1126.46 384.975 1125.6 379.355 1124.55 379.355C1123.5 379.355 1122.65 384.975 1122.65 391.907C1122.65 398.839 1123.5 404.458 1124.55 404.458Z" fill="white"/>
</g>
<g filter="url(#filter2_f_1562_1382)">
<path d="M364.907 741.103C365.96 741.103 366.813 735.483 366.813 728.551C366.813 721.619 365.96 716 364.907 716C363.854 716 363 721.619 363 728.551C363 735.483 363.854 741.103 364.907 741.103Z" fill="white"/>
</g>
<g filter="url(#filter3_f_1562_1382)">
<path d="M104.907 255.103C105.96 255.103 106.813 249.483 106.813 242.551C106.813 235.619 105.96 230 104.907 230C103.854 230 103 235.619 103 242.551C103 249.483 103.854 255.103 104.907 255.103Z" fill="white"/>
</g>
<g opacity="0.9">
<g filter="url(#filter4_f_1562_1382)">
<path d="M1065.28 -582.884L1285.03 -915L1107.28 -558.639L685.408 172.055L488.165 465.201L643.415 147.811L1065.28 -582.884Z" fill="url(#paint0_linear_1562_1382)" fill-opacity="0.09"/>
</g>
<g filter="url(#filter5_f_1562_1382)">
<path d="M1189.56 -494.88L1394.13 -800.704L1231.56 -470.636L841.909 204.25L658.128 474.08L799.917 180.006L1189.56 -494.88Z" fill="url(#paint1_linear_1562_1382)" fill-opacity="0.09"/>
</g>
<g filter="url(#filter6_f_1562_1382)">
<path d="M1130.76 -543.131L1362.95 -896.816L1172.75 -518.886L724.451 257.591L516.165 569.864L682.458 233.346L1130.76 -543.131Z" fill="url(#paint2_linear_1562_1382)" fill-opacity="0.15"/>
</g>
<g filter="url(#filter7_f_1562_1382)">
<path d="M1089.99 -467.172L1294.55 -772.996L1131.98 -442.928L742.333 231.958L558.552 501.788L700.341 207.714L1089.99 -467.172Z" fill="url(#paint3_linear_1562_1382)" fill-opacity="0.15"/>
</g>
</g>
</g>
<defs>
<filter id="filter0_f_1562_1382" x="711.813" y="25" width="105.103" height="83.8135" filterUnits="userSpaceOnUse" color-interpolation-filters="sRGB">
<feFlood flood-opacity="0" result="BackgroundImageFix"/>
<feBlend mode="normal" in="SourceGraphic" in2="BackgroundImageFix" result="shape"/>
<feGaussianBlur stdDeviation="20" result="effect1_foregroundBlur_1562_1382"/>
</filter>
<filter id="filter1_f_1562_1382" x="1082.65" y="339.355" width="83.813" height="105.103" filterUnits="userSpaceOnUse" color-interpolation-filters="sRGB">
<feFlood flood-opacity="0" result="BackgroundImageFix"/>
<feBlend mode="normal" in="SourceGraphic" in2="BackgroundImageFix" result="shape"/>
<feGaussianBlur stdDeviation="20" result="effect1_foregroundBlur_1562_1382"/>
</filter>
<filter id="filter2_f_1562_1382" x="323" y="676" width="83.813" height="105.103" filterUnits="userSpaceOnUse" color-interpolation-filters="sRGB">
<feFlood flood-opacity="0" result="BackgroundImageFix"/>
<feBlend mode="normal" in="SourceGraphic" in2="BackgroundImageFix" result="shape"/>
<feGaussianBlur stdDeviation="20" result="effect1_foregroundBlur_1562_1382"/>
</filter>
<filter id="filter3_f_1562_1382" x="63" y="190" width="83.813" height="105.103" filterUnits="userSpaceOnUse" color-interpolation-filters="sRGB">
<feFlood flood-opacity="0" result="BackgroundImageFix"/>
<feBlend mode="normal" in="SourceGraphic" in2="BackgroundImageFix" result="shape"/>
<feGaussianBlur stdDeviation="20" result="effect1_foregroundBlur_1562_1382"/>
</filter>
<filter id="filter4_f_1562_1382" x="392.165" y="-1011" width="988.86" height="1572.2" filterUnits="userSpaceOnUse" color-interpolation-filters="sRGB">
<feFlood flood-opacity="0" result="BackgroundImageFix"/>
<feBlend mode="normal" in="SourceGraphic" in2="BackgroundImageFix" result="shape"/>
<feGaussianBlur stdDeviation="48" result="effect1_foregroundBlur_1562_1382"/>
</filter>
<filter id="filter5_f_1562_1382" x="562.128" y="-896.704" width="927.998" height="1466.78" filterUnits="userSpaceOnUse" color-interpolation-filters="sRGB">
<feFlood flood-opacity="0" result="BackgroundImageFix"/>
<feBlend mode="normal" in="SourceGraphic" in2="BackgroundImageFix" result="shape"/>
<feGaussianBlur stdDeviation="48" result="effect1_foregroundBlur_1562_1382"/>
</filter>
<filter id="filter6_f_1562_1382" x="420.165" y="-992.816" width="1038.79" height="1658.68" filterUnits="userSpaceOnUse" color-interpolation-filters="sRGB">
<feFlood flood-opacity="0" result="BackgroundImageFix"/>
<feBlend mode="normal" in="SourceGraphic" in2="BackgroundImageFix" result="shape"/>
<feGaussianBlur stdDeviation="48" result="effect1_foregroundBlur_1562_1382"/>
</filter>
<filter id="filter7_f_1562_1382" x="462.552" y="-868.996" width="927.998" height="1466.78" filterUnits="userSpaceOnUse" color-interpolation-filters="sRGB">
<feFlood flood-opacity="0" result="BackgroundImageFix"/>
<feBlend mode="normal" in="SourceGraphic" in2="BackgroundImageFix" result="shape"/>
<feGaussianBlur stdDeviation="48" result="effect1_foregroundBlur_1562_1382"/>
</filter>
<linearGradient id="paint0_linear_1562_1382" x1="1285.03" y1="-915" x2="488.165" y2="465.201" gradientUnits="userSpaceOnUse">
<stop stop-color="white"/>
<stop offset="1" stop-color="white" stop-opacity="0.54"/>
</linearGradient>
<linearGradient id="paint1_linear_1562_1382" x1="981.751" y1="-87.2202" x2="789.526" y2="282.943" gradientUnits="userSpaceOnUse">
<stop stop-color="white"/>
<stop offset="1" stop-color="white" stop-opacity="0"/>
</linearGradient>
<linearGradient id="paint2_linear_1562_1382" x1="888.554" y1="-75.9009" x2="670.325" y2="351.32" gradientUnits="userSpaceOnUse">
<stop stop-color="white"/>
<stop offset="1" stop-color="white" stop-opacity="0"/>
</linearGradient>
<linearGradient id="paint3_linear_1562_1382" x1="882.175" y1="-59.5122" x2="689.95" y2="310.651" gradientUnits="userSpaceOnUse">
<stop stop-color="white"/>
<stop offset="1" stop-color="white" stop-opacity="0"/>
</linearGradient>
<clipPath id="clip0_1562_1382">
<rect width="1440" height="868" fill="white"/>
</clipPath>
</defs>
</svg>
